<?xml version="1.0" encoding="UTF-8"?>
<svg id="Layer_2" data-name="Layer 2" xmlns="http://www.w3.org/2000/svg" viewBox="0 0 627.94 248.19">
  <defs>
    <style>
      .cls-1 {
        fill: #1b4535;
      }
    </style>
  </defs>
  <g id="Layer_1-2" data-name="Layer 1">
    <g>
      <g>
        <path class="cls-1" d="M285.43,89.04h-21.65c.14-2.15,1.55-4.33,2.55-6.28,8.82-17.28,20.03-35.84,30.04-52.59,8.21-13.74,14.54-28.69,32.63-30.05,17.76-1.33,24.53,8.72,32.68,22.07,11.52,18.87,23.12,39.65,33.83,59.05,2.45,4.44,4.76,8.96,7.07,13.48l.16,1.31-8.75,15.22c-.95.93-3.02.86-4.03.04-14.15-22.61-27.09-45.96-40.24-69.17-3.1-5.48-9.3-20.1-15.26-21.78-3.64-1.03-7.41-.24-9.96,2.61-2.56,2.87-6.01,9.32-8.19,12.9-10.41,17.07-19.79,34.69-30.44,51.65-.29.45-.42.99-.44,1.53Z"/>
        <path class="cls-1" d="M246.12,138.04c4.27-.12,8.57.14,12.85.02,28.57-.78,58.8,2.35,87.18.57,5.42-.34,12.83-2.02,12.82-8.86,0-1.67-1.15-3.8-1.31-5.56-9.36-18.96-21.38-36.63-31.3-55.32-1.08-2.03-5.21-9.55-4.78-11.22.56-2.24,4.86-9.08,6.36-11.35,1.01-1.53,2.77-4.83,4.61-5.1,1.2-.18,2.84,3.23,3.5,4.31,11.96,19.63,24.01,40.55,34.97,60.76,6.4,11.8,11.02,17.64,6.44,31.72-2.9,8.91-10.29,17.89-19.98,19.34-32.9,1.38-66.09.25-99.1.61-2.4-.41-7.04-9.1-8.37-11.58-.53-.98-4.22-8.05-3.88-8.36Z"/>
        <path class="cls-1" d="M297.4.14l-6.73,13.49c-12.78,23.32-28.12,45.96-40.66,69.31-1.11,2.07-4.51,8.08-4.91,9.91-1.22,5.63,2.77,9.68,7.6,11.54l75.66.13c2.58.76,9.79,15.82,11.2,18.99l-1.95.87c-26.75-.54-53.73.89-80.36-.6-11.6-.65-17.32-.38-25.38-9.95-12.71-15.09-4.72-30.7,3.33-45.13,10.91-19.56,22.76-39.91,34.4-59.05.84-1.38,5.52-9.51,6.45-9.51h21.37Z"/>
      </g>
      <g>
        <path class="cls-1" d="M565.55,201.86c1.81.48,14.49,24.76,16.7,28.32.31.5.55,1.26,1.25,1.31l16.81-29.63h15.67v22.22h11.11c.06,0,.85.79.85.85v11.11c-4.03.14-7.99-.04-11.97-.57v11.4h-11.4v-11.4h10.83v-10.83c-3.74.72-7.09.74-10.83,0v-9.69l-2.17,2.67-16.35,28.67c-1.21,1.19-4.04.31-5.72.61l-19.06-31.95v31.91h-11.97v-45.02h16.24Z"/>
        <path class="cls-1" d="M511,200.88c16.73-1.48,34.3,6.71,33.18,25.78-1.69,28.67-62.72,29.96-59.84-4.57,1.23-14.73,13.58-20.05,26.66-21.21ZM499.91,233.02c7.7,7.67,29.99,6.33,31.69-6.41,2.54-19-29.75-19.88-34.44-6.52-1.47,4.18-.41,9.78,2.75,12.93Z"/>
        <path class="cls-1" d="M329.93,230.35v-28.49h10.83v45.02h-9.97c-10.9-9.93-21.17-20.43-32.19-30.2v30.2h-11.97v-45.02h12.82c.95,0,8.53,8.07,9.96,9.41.7.66,1.61,1.03,2.3,1.68,6.13,5.74,11.88,11.88,18.22,17.39Z"/>
        <path class="cls-1" d="M280.35,201.86v9.69h-33.62v7.98c10.18-.89,20.59-.88,30.77,0,.32,2.91-.43,5.68-.57,8.55h-30.2v8.55h33.9c.06,0,.85.79.85.85v8.55c0,.06-.79.85-.85.85h-45.87v-45.02h45.59Z"/>
        <path class="cls-1" d="M480.36,228.07c-.96,8.16-6.05,14.44-13.68,17.37-10.24,3.93-24.82,3.55-34.36-2.1-13.35-7.9-14.32-27.15-2.06-36.6,9.95-7.67,31.33-7.76,41.51-.57,4.71,3.32,7.75,8.12,8.58,13.9-.48.67-10.91.92-12.16.51-.94-.3-1.9-3.31-2.91-4.5-6.98-8.15-29.77-6.37-31.09,5.98-1.67,15.66,17.03,18.95,28.12,12.73,3.31-1.86,3.92-3.65,5.81-6.73h12.25Z"/>
        <polygon class="cls-1" points="184.62 201.86 184.62 218.96 214.82 218.96 214.82 201.86 226.79 201.86 226.79 246.88 214.82 246.88 214.82 229.21 184.62 229.21 184.62 246.88 172.66 246.88 172.66 201.86 184.62 201.86"/>
        <path class="cls-1" d="M69.52,201.86v24.22c0,.2.56,3.3.69,3.87,2.29,10.2,26.27,10.77,27.76-1.06.74-5.82.88-13.44.64-19.36-.1-2.45-1.07-5.03-.6-7.67h12.54c.05,5.22-.05,10.47-.03,15.7,0,1.55.71,2.85.62,4.52-.24,4.63-1.05,11-3.14,15.13-7.96,15.75-45.77,14.97-49.74-5.01-.97-4.87-1.14-12.41-1.29-17.51-.13-4.31,0-8.57.58-12.83h11.97Z"/>
        <path class="cls-1" d="M0,246.88l22.5-44.46c.28-.41.68-.5,1.14-.57,1.25-.19,11.12-.22,11.59.11,5.76,12.27,12.94,23.87,19,35.98,1.45,2.9,2.85,5.86,3.88,8.94h-12.25c-1.62-1.34-3.78-8.58-5.21-9.04-5.29-.33-10.62.16-15.9-.05-2.06-.08-4.66-1.19-6.73-.52-1.46.48-4.37,9.61-5.78,9.61H0ZM35.9,228.07l-4.63-11.04-2.49-3.77-7.12,14.81h14.25Z"/>
        <polygon class="cls-1" points="399.44 201.86 399.44 211.55 378.93 211.55 378.36 246.88 366.39 246.88 366.39 211.55 345.88 211.55 345.88 201.86 399.44 201.86"/>
        <path class="cls-1" d="M168.1,201.86v9.69h-20.51v34.47c0,.06-.79.85-.85.85h-11.11v-35.33h-21.08v-9.69h53.56Z"/>
        <rect class="cls-1" x="404" y="201.86" width="11.97" height="45.02"/>
      </g>
    </g>
  </g>
</svg>