<?xml version="1.0" encoding="UTF-8"?>
<svg id="Layer_2" data-name="Layer 2" xmlns="http://www.w3.org/2000/svg" viewBox="0 0 491.24 333.87">
  <defs>
    <style>
      .cls-1 {
        fill: #1b4535;
      }
    </style>
  </defs>
  <g id="Layer_1-2" data-name="Layer 1">
    <g>
      <path class="cls-1" d="M40.79,230.26c30.88-4.4,56.26,10.55,63,41.51,7.77,35.71-26.59,68.63-61.99,60.99-30.08-6.5-45.64-33.54-40.71-63.2,2.82-16.97,22.53-36.86,39.7-39.3Z"/>
      <path class="cls-1" d="M43.79,115.25c53.14-7.39,82.2,58.26,41.76,91.76-38.39,31.8-95.52-4.06-84.05-52.05,4.64-19.44,22.23-36.91,42.3-39.7Z"/>
      <path class="cls-1" d="M47.81.27c38.53-3.99,67.08,36.18,52.74,71.74-16.21,40.17-72.5,43.58-93.68,5.69C-11.73,44.43,10.58,4.13,47.81.27Z"/>
      <path class="cls-1" d="M227.05,102.01V3.01h46.5c2.64,0,15.05,5.41,17.85,7.15,24.87,15.45,23.27,69.61-1,84.7-4.02,2.5-15.41,7.15-19.85,7.15h-43.5ZM241.05,90.01h27.5c1.74,0,10.98-3.9,12.85-5.15,16.59-11.13,17.86-46.97,5.65-61.35-2.39-2.81-12.1-8.5-15.5-8.5h-30.5v75Z"/>
      <path class="cls-1" d="M332.05,3.01v47c16.54-15.29,32.71-30.88,48.5-47h17.5l-40.06,40.5,42.06,58.5h-16.5c-12.77-15.69-23.47-33.09-36.08-48.97-1.21-.26-1.72.84-2.44,1.47-1.78,1.56-12.51,12.11-12.83,13.17-1.41,5.61,1.52,30.22-.61,33.39-1.35,2.01-10.73.46-13.56.94V3.01h14Z"/>
      <path class="cls-1" d="M218.05,33.01c-3.05-.57-12.02.99-14.06-.44-1.12-.79-1.8-5.48-2.72-7.28-7.37-14.41-30.69-16.66-43.17-7.74-18.96,13.55-19.28,55.98-.39,69.3,15.08,10.64,39.09,6.21,45.09-12.6.76-2.37,1.18-9.12,2.2-9.8,1.33-.9,12.58-.93,13.6.55.44.63-1.52,9.3-2.03,11.02-6.88,23.04-26.56,30.11-49.03,28.01-13.55-1.27-27.27-12.06-32.67-24.33-9.98-22.66-6.79-55.82,14.26-71.12,24.11-17.54,64.53-7.61,68.93,24.43Z"/>
      <path class="cls-1" d="M213.05,174.01h-34.5c-2.05,0-2.05-7,0-7h40c.11,0,1.5,1.39,1.5,1.5v46c0,2.28-7,3.66-7,1v-16.5l-4,5.5c-18.34,21.74-55.45,18.4-70.84-5.15-15.59-23.85-10.46-63.49,15.16-78.53,20.41-11.99,49.65-6.09,60.87,15.5.96,1.85,4.05,9.73,3.77,11.12-.37,1.87-4.5,2.1-6,1.11-1.01-.67-3.57-8.09-4.77-10.22-13.6-24.14-49.06-22.45-63,.36-12.65,20.7-10.24,56.38,12.5,69.14,12.72,7.13,32.21,6.48,43.81-2.82,9.37-7.51,13.46-19.14,12.5-31Z"/>
      <path class="cls-1" d="M322.05,157.01l8.04-8.46c35.32-19.58,58.98,15.24,47.46,48.46-8.86,25.55-41.77,29.07-55.01,5.99-1.34.05.32,11.05-.96,13.05s-5.54.76-5.54-.54v-98.5c1.46-.24,6-.08,6,1.5v38.5ZM341.77,149.23c-25.9,4.43-25.51,51.67-4.41,60.97,15.39,6.78,29.52-.32,34.2-16.18,3.41-11.55,3.33-26.76-4.51-36.51-6.42-7.98-15.29-9.99-25.28-8.28Z"/>
      <path class="cls-1" d="M435.04,205.01c-3.31,2.97-5.59,6.39-9.65,8.85-11.5,6.97-35.82,6.55-39.9-8.8-4.09-15.37,3.35-24.74,18.31-27.8,6.31-1.29,26.95-1.05,29.73-6.27,4.91-9.18-.69-20.59-11.04-21.93-9.35-1.21-21.97-.08-26.21,9.68-.69,1.6-1.92,7.89-2.33,8.17-.82.58-4.46-.2-5.91.08.99-9.17,3.31-16.25,11.96-20.53,12.99-6.43,39.28-5.19,41.06,13.01,1.43,14.55-2,32.94,0,46.99.96,6.72,5.23,3.33,8,5,3.58,2.16-1.39,5.44-4.52,5.44-6.62.01-10.62-5.5-9.52-11.91ZM394.33,187.3c-5.47,5.45-4.66,18.43,2.35,22.59,6.46,3.83,18.41,3.44,25.07.33,12.73-5.95,14.05-20.75,13.3-33.2-5.98,4.21-13.55,3.08-20.43,4.07-5.92.85-16,1.95-20.28,6.22Z"/>
      <path class="cls-1" d="M270.79,143.25c31.67-4.43,45.34,28.97,35.03,55.03-3.62,9.15-13.27,18.36-23.32,19.67-49.1,6.43-51.59-69.13-11.71-74.71ZM269.77,149.23c-4.91.83-11.79,6.31-14.57,10.43-14.35,21.29-1.55,59.65,28.12,52.12,21.07-5.35,24.89-37.88,12.73-53.27-6.79-8.59-15.46-11.12-26.28-9.28Z"/>
      <path class="cls-1" d="M456.05,118.51c.4-1.54,4.91-2.11,5.91-1.41.32.22,1.04,3.51,1.12,4.38v91.08c-.67,6.22-7.04,4.79-7.04,2.95v-97Z"/>
      <path class="cls-1" d="M236.05,117.01v98.5c0,1.99-6,1.99-6,0v-97c0-1.58,4.54-1.74,6-1.5Z"/>
      <path class="cls-1" d="M482.05,205.01c.23.2.76,4.96,2.99,5-.03-.98.71-4.63,1.1-4.91.33-.23,4.74-.27,4.91-.09.39.39.16,9.99-.48,11.03s-1.4,1.34-2.54.48c-1.56-1.17-.08-3.68-1.99-3.51.33,1.47-.69,4.66-2.5,3.99-2.06-.76-.56-4.11-2.5-3.99.32,1.47-.68,4.65-2.5,3.99-2.91-1.05-.55-7.82-2-9.99-4.97.82-.57,8.91-4.01,9.99-3.75,1.18-2.1-8.65-2.53-8.97-.53-.38-2.45.25-2.96-.03-.13-.07-.14-3,0-3,2.24,0,14.43-.49,15,0Z"/>
    </g>
  </g>
</svg>