<?xml version="1.0" encoding="UTF-8"?>
<svg id="Layer_2" data-name="Layer 2" xmlns="http://www.w3.org/2000/svg" viewBox="0 0 627.76 319.35">
  <defs>
    <style>
      .cls-1 {
        fill: #1b4535;
      }
    </style>
  </defs>
  <g id="Layer_1-2" data-name="Layer 1">
    <g>
      <g>
        <path class="cls-1" d="M361.99,0l-40.44,147.9c-4.16,13.77-24.08,33.11-38.65,33.11h-118.23l25.27-94.59c5.12-16.29,10.65-27.48,26.37-35.6,5.16-2.67,17.41-6.79,22.56-6.79h54.63l-9.9,37.39c-2.01,1.75-40.96-1.74-48.89.85-1.45.47-2.95,1.41-3.95,2.58l-17.16,60.3h64.41c4.49,0,8.11-9.73,9.44-13.39,11.86-32.88,20.43-74.1,30.06-108.55,2.12-7.6,3.99-15.42,5.35-23.19h39.14Z"/>
        <path class="cls-1" d="M419.06,0l-40.44,147.9c-7.1,18.77-26.57,35.18-47.61,33.1L379.93,0h39.14Z"/>
        <path class="cls-1" d="M463.09,44.03c-3.18,10.18-4.68,25.31-8.48,34.73-.37.93-1.41,2.77-2.12,2.77h-36.69c2.08-10.45,4.58-24.91,8.48-34.73.47-1.17,1.04-2.08,2.12-2.77h36.69Z"/>
      </g>
      <g>
        <path class="cls-1" d="M0,228.05h36.59c27.35,2.07,38.42,20.07,37.45,46.14-1.06,28.41-14.12,42.81-42.76,43.88-10.38.39-20.89-.31-31.27-.01v-90ZM12.06,307.68c14.76-.57,32.21,3.21,42.61-9.96,7.25-9.19,8.16-24.37,6.42-35.56-2.17-13.97-9.91-22.28-24.22-23.73-8.17-.83-16.6.03-24.81-.28v69.53Z"/>
        <path class="cls-1" d="M268.32,319.17c-10.74-.99-19.85-8.39-23.56-18.36-9.24-24.81,4.76-53.88,33.98-49.12,17.02,2.77,24.19,21.46,23.5,36.92h-48.79c-.17,8.65,3.81,16.86,12.26,19.84,9.83,3.47,23.01.39,24.47-11.43h10.93c-1.56,10.21-7.89,18.07-17.88,20.95-1.34.39-3.81,1.07-5.11,1.2-2.43.25-7.37.23-9.81,0ZM290.47,279.08c-.25-9.68-7.7-17.76-17.51-18.24-10.97-.53-18.59,7.73-19.5,18.24h37.01Z"/>
        <path class="cls-1" d="M109.07,319.17c-33.34-3.07-35.71-58.54-3.99-66.93,20.22-5.35,34.73,7.8,37.31,27.3.38,2.89.67,6.23.32,9.07h-48.51c-.61,10.63,6.3,20.16,17.25,21.02,9.46.75,17.72-2.53,19.48-12.61h10.93c-1.73,10.03-7.73,17.95-17.66,20.89-1.39.41-3.97,1.13-5.33,1.26-2.43.25-7.37.23-9.81,0ZM131.22,279.08c-.56-10.58-8.73-18.68-19.5-18.24-10.01.41-16.95,8.55-17.51,18.24h37.01Z"/>
        <path class="cls-1" d="M204.39,319.17h-3.93c-4.37-1.49-6.67-4.85-6.17-9.53-2.47,2.35-4.77,4.72-7.84,6.31-3.35,1.73-7,2.5-10.66,3.22h-8.97l-4.7-1.04c-10.37-2.93-13.92-12.58-11.76-22.57,2.49-11.5,15.36-13.56,25.1-15.28,7.69-1.36,21.55-.65,17.64-12.76-2.7-8.37-18.1-7.78-24.42-4.38-3.98,2.14-5.07,5.79-5.51,10.05h-10.51c-.48,0-.2-2.42-.14-2.94,1.93-16.57,18.71-20.02,32.66-18.93,9.22.72,18.23,4.7,19.2,15v52.85ZM193.46,296.88c.47-3.74-.35-8.36,0-12.2-9.33,5.53-33.28.11-31.97,16.69,1.07,13.64,30.21,9.71,31.97-4.5Z"/>
        <path class="cls-1" d="M490.66,319.17h-3.93c-4.26-1.47-6.4-4.7-6.17-9.25-4.92,5.2-10.89,8.06-17.94,9.25h-9.53l-4.49-.98c-10.44-2.97-14.16-12.43-11.92-22.58,3.31-14.94,22.91-14.2,34.64-16.67,6.47-1.36,10.48-4.18,8.04-11.43-2.62-7.79-15.73-7.56-22.06-5.39-5.18,1.78-7.76,5.54-7.58,11.06h-11.22c.4-3.09.71-5.97,1.91-8.88,4.91-11.88,19.36-13.8,30.75-12.98,9.39.67,18.2,4.34,19.48,14.72v53.13ZM479.72,297.16c.51-3.77-.38-8.59,0-12.48-7.74,4.89-30.33,1.11-31.94,13.34-1.9,14.46,17.78,13.67,26.03,7.81,2.49-1.77,5.49-5.59,5.91-8.67Z"/>
        <path class="cls-1" d="M527.11,319.17c-31.81-2.81-33.99-53.03-9.31-64.97,9.78-4.73,25.57-4.07,34.12,3.01,5.15,4.27,7.42,10.09,8.56,16.53h-11.78c-2.35-16.7-25.74-16.86-32.72-3.14-6.4,12.56-3.89,37.88,13.78,39.04,10.92.72,18.39-4.62,19.5-15.71h11.22c-1.09,10.85-7.19,20.67-18.01,23.91-1.53.46-4.31,1.19-5.82,1.33-2.44.23-7.08.22-9.53,0Z"/>
        <path class="cls-1" d="M582.06,280.76l29.3-28.04h14.44l-25.48,23.73,27.45,41.6h-13.6l-22.43-33.92-9.67,9.11v24.39s-.39.42-.42.42h-10.37s-.42-.39-.42-.42v-84.11s.39-.42.42-.42h10.37s.42.39.42.42v47.24Z"/>
        <path class="cls-1" d="M370.38,233.1v19.63h12.9v9.53h-12.9v41.92c0,.56.7,2.33,1.14,2.78.49.49,2.59,1.28,3.2,1.28h8.83c.07.21-.28.34-.28.42v9.39c-2.93-.11-5.91.14-8.84.01-6.32-.29-12.49-.74-14.29-7.86-.21-.82-.7-3.08-.7-3.79v-73.32h10.93Z"/>
        <path class="cls-1" d="M347.95,251.04v11.78c-7.86-.21-15.49,2-19.74,8.99-2.63,4.32-3.56,10.26-3.8,15.26-.51,10.18.37,20.76,0,30.98h-10.51s-.42-.39-.42-.42v-64.91h10.37v13.46l2.96-5.03c2.14-2.56,4.26-5.11,7.15-6.86,4.21-2.56,9.14-3.12,14-3.25Z"/>
        <path class="cls-1" d="M431.5,251.04v11.78c-8.66-.28-17.05,2.75-20.8,11.03-1.93,4.27-2.54,9.42-2.75,14.07-.45,9.93.33,20.18,0,30.14h-10.51s-.42-.39-.42-.42v-64.49s.39-.42.42-.42h9.95v13.46l3.24-5.31c3.46-4.44,7.69-7.94,13.34-9.09,2.47-.5,5.01-.6,7.52-.75Z"/>
        <path class="cls-1" d="M230.47,233.1v84.53s-.39.42-.42.42h-10.51v-84.95h10.93Z"/>
      </g>
    </g>
  </g>
</svg>