<?xml version="1.0" encoding="UTF-8"?>
<svg id="Layer_2" data-name="Layer 2" xmlns="http://www.w3.org/2000/svg" viewBox="0 0 625.22 296.95">
  <defs>
    <style>
      .cls-1 {
        fill: #1b4535;
      }
    </style>
  </defs>
  <g id="Layer_1-2" data-name="Layer 1">
    <g>
      <g>
        <path class="cls-1" d="M410.44,119.76l-2.22,5.24c-13.13,17.1-23.35,51.15-44.42,59.31-5.23,2.03-9.45,2.37-14.84,2.92-21.86,2.22-46.21.37-68.21.05-12.5-2.07-20.63-6.38-28.39-16.37s-15.56-24.33-22.04-35.51c-4.41-7.61-10.93-17.74-14.23-25.56-9.39-22.23,3.04-36.54,13.53-54.73,5.7-9.88,11.08-20.12,17.04-29.85,9.24-15.07,18.2-22.33,36.21-24.89,22.22,1.27,45.73-1.89,67.6.65,16.87,1.96,25.87,8.59,34.74,22.81,1.67,2.68,3.07,6.07,4.7,8.8,7.57,12.6,15.19,25.29,22.28,38.11.75.36-.63,1.41-.7,1.41h-17.05c-1.18-1.63-2.47-3.28-3.56-4.97-4.13-6.37-7.46-13.39-11.36-19.9-7.49-12.52-14.46-27.36-30.64-29.75-18.95-2.8-40.9.46-60.33-.82-14.6,1.89-22.38,8.42-29.82,20.62-4.5,7.38-8.49,15.22-12.78,22.75-9.11,15.97-20.69,28.99-11.63,48.57,9.43,14.76,17.15,31.24,26.54,45.93,6.15,9.62,12.69,14.67,24.07,16.42,19,2.92,42.29-.9,61.92.65,2.08-1.02,4.86-.81,7-1.53,12.67-4.22,19.92-19.04,26.37-29.76,3.47-5.76,6.81-13.1,10.64-18.49.27-.37,1.99-2.12,2.14-2.12h17.41Z"/>
        <path class="cls-1" d="M369.95,70.73h-51.51c-.26,0-3.91.62-4.9.79-2.66.45-7.89,3.12-10.04,4.88-1.05.86-5.46,5.83-5.95,6.84-1.6,3.27-3.32,10.61-2.94,14.13,1.11,10.34,7.1,20.18,17.68,22.73,4.18,1.01,8.53,1.02,12.83,1.04,14.47.05,28.94.05,43.41.05,0,0-12.43,20.61-12.43,20.61-3.66,4.59-11.14,9.32-17.03,9.97-13.92,1.54-30.59-1.22-44.81,0-15.98-1.88-21.87-16.9-29.1-29.16-6.86-11.62-16.29-22.81-10.91-37.19,2.73-7.31,8.34-14.99,12.33-21.77,6.14-10.4,12.39-25.49,26.26-27.03,14.58-1.62,32.05,1.28,46.94,0,14.47,2.13,19.99,14.79,26.53,26.05l3.64,8.08Z"/>
        <path class="cls-1" d="M385.57,83.53c-.16,1.02.63,1.5.74,2.45.58,4.98.32,15.9-.76,20.61-.12.51.13,1.21.02,1.79-.99-.08-1.79-.02-2.56.64l-61.76.11c-2.76-.35-7.64-4.09-9.22-6.41-2.41-3.52-2.41-10.01,0-13.53,1.29-1.88,5.04-4.88,7.2-5.59.86-.28,2.02.16,2.85-.7l59.62-.11c1.33.56,2.39.94,3.87.75Z"/>
      </g>
      <g>
        <path class="cls-1" d="M475.62,295.86c-5.73-16.03-11.46-32.05-17.18-48.08-1.64-4.05-3.27-8.1-4.91-12.15-7.88-.01-15.75-.02-23.63-.03l-20.67,60.32h19.18c1.26-3.72,2.52-7.45,3.78-11.17.5-.08,1.01-.15,1.51-.23,6.18-.16,12.36-.32,18.54-.48,1.41,3.96,2.82,7.92,4.23,11.89,6.38-.02,12.76-.04,19.14-.05ZM447.6,271.76h-12.08l6.04-20.61c1.08-.02,6.24,18.23,6.04,20.61Z"/>
        <path class="cls-1" d="M511.54,235.53c-.52,10.83.69,22.28,0,33.04-.12,1.91-.46,5.22-.75,7.07-1.25,8.11-15,9.62-17.96.96-.21-.61-1.19-4.26-1.19-4.49v-19.89c0-.08-.99-1.07-1.07-1.07h-11.72v-15.63h-19.18v14.21c0,.31,0,.62,0,.93,0,0,0,0,0,0,.03,0,.05.15.07.45l.99.04h11.37c2.27,0,.4,6.82.35,8.16-.25,6.1.44,16.83,2.33,22.55,6.19,18.79,40.38,19.31,50.55,5.46,1.71-2.33,4.68-9.73,4.68-12.38v-39.43h-18.47Z"/>
        <path class="cls-1" d="M176.91,295.92h-19.89l-3.48-10.95c-.14-.6-.63-.4-1.1-.45-5.96-.69-13.36.52-19.49.12l-3.64,11.29H62.52v-60.39h48.31v13.5h-28.77c-1.7,0-.91,7-1.07,8.53h27.71v13.5h-27.71c.22,1.68-.72,9.95,1.07,9.95h28.06v12.08l20.94-56.85c1.6-2.19,20.29-1.43,23.84-1.07,8.11,19.89,14.58,40.57,22,60.77ZM149.2,271.76c-.85-7.08-3.87-13.75-5.69-20.6-1.07.11-1.11,1.04-1.38,1.81-2.08,5.88-3.47,12.71-5.01,18.79h12.08Z"/>
        <path class="cls-1" d="M281.35,235.53c9.34-.67,19.42-1.24,28.81-.74,9.68.52,21.18,2.12,25.55,12.11,4.12,9.4-.56,21.28-9.59,25.6l.05.98,12.73,22.45h-21.31l-10.62-20.28c-1.79-1.86-4.78-.78-7.14-1.03v21.31c-6.17-.1-12.39.42-18.47-.71v-59.68ZM310.83,249.03c-3.42-.42-7.5.3-11.01,0v12.08h12.43c.59,0,4.02-1.79,4.64-2.47,1.61-1.75,2.19-6.03.2-7.52-.81-.61-5.21-1.97-6.26-2.09Z"/>
        <path class="cls-1" d="M0,295.92v-60.39c11.66-1.03,24.13-1.38,35.68.91,10.91,2.16,18.32,8.15,21.52,18.98,3.35,11.34.35,28.59-10.52,34.96-12.98,7.61-32.2,4.98-46.68,5.54ZM18.47,249.03v32.68c4.54.24,14.37-.2,17.56-3.75,2.26-2.52,3.89-10.27,3.78-13.68-.43-13.51-9.46-15.89-21.34-15.25Z"/>
        <path class="cls-1" d="M229.48,235.53c16.1,0,32.21,0,48.31,0,.3.81-.71,1.6-.71,1.77v11.72h-28.06c-2.26,0,.29,7.62-.35,9.23,1.03.46,2.17-.71,2.48-.71h24.51v13.5h-27c-1.11,3.2-.64,6.61-.71,9.95h29.13v14.92l-47.6-.71v-59.68Z"/>
        <path class="cls-1" d="M375.49,235.53l12.79,39.79,12.79-39.79h18.83l-22.12,60.29c-5.57-.19-11.84.6-17.35.14-.79-.07-1.57,0-2.1-.74l-21.66-59.69h18.83Z"/>
        <path class="cls-1" d="M625.22,235.53v14.92h-17.76v44.76c-6.3,1.98-12.75-.64-19.18,0v-44.76h-18.47v-14.92h55.42Z"/>
        <path class="cls-1" d="M554.88,235.53l-.39,44.79,29.52-.03v15.63h-47.96c-.08,0-1.07-.99-1.07-1.07v-59.32h19.89Z"/>
        <path class="cls-1" d="M196.8,235.53v45.47l29.84-.71v14.56c0,.08-.99,1.07-1.07,1.07h-46.89c-.08,0-1.07-.99-1.07-1.07v-59.32h19.18Z"/>
      </g>
    </g>
  </g>
</svg>