<?xml version="1.0" encoding="UTF-8"?>
<svg id="Layer_2" data-name="Layer 2" xmlns="http://www.w3.org/2000/svg" viewBox="0 0 658.25 167.94">
  <defs>
    <style>
      .cls-1 {
        fill: #1b4535;
      }
    </style>
  </defs>
  <g id="Layer_1-2" data-name="Layer 1">
    <g>
      <g>
        <path class="cls-1" d="M207.42,20.03c3.65-.14,7.14.19,10.78.3,19.66.63,38.96,2.75,58.11,8.42,17.93,5.31,40.91,11.16,53,26.28,14.18,17.75,5.03,34.03-8.46,48.24-9.18,9.67-18.61,18.5-30.37,25.23-50.32,28.78-119.87,38.03-176.76,30.72-11.88-1.53-23.29-5.14-34.92-7.55-20.46-4.24-55.37-13.54-61.97-36.47-7.91-27.51,28.22-50.29,49.09-60.05,4.23-1.98,9.53-3.67,13.54-6,15.49-9.02,34.25-14.89,51.67-19.35,25.54-6.55,50.12-8.74,76.3-9.77ZM262.39,27.07c-6.35-1.13-12.62-2.76-19.01-3.73-8.97-1.36-18.73-2.14-27.78-2.67-10.07-.58-20.5.36-30.47,1.13-23.57,1.8-47.95,6.64-70.29,14.64-3.13,1.12-7.05,2.45-9.96,3.94-.31.16-1.26.46-.93.94,8.12-2.68,16.52-4.61,24.92-6.27,15.51-3.08,30.47-4.66,46.12-5.75.62-.04,1.27,0,1.89.01.45,0,1.4-.28,1.31.37-14.42,2.24-28.87,5.42-42.86,9.57-21.27,6.3-43.52,15.81-61.08,29.48-16.8,13.08-31.99,33.3-15.6,53.5,19.03,23.45,67.76,29.18,96.03,29.86,15.33.36,30.15-2.61,45.02-6.12,29.62-7,74.24-23.43,92.55-48.73,6.65-9.18,9.96-19.4,5.77-30.48-.42-1.12-1.22-2.08-1.42-3.28-.37-.44-1.78,1.2-2.04,1.53-3.02,3.7-5.86,8.39-8.7,12.33-5.26,7.32-9.5,10.7-10.32,20.48-.18,2.2.43,4.08.76,6.2l-18.79.75c3.19-4.5,3.45-10.61,4.52-15.93-3.01-6.5-5.11-13.97-8.21-20.37-.85-1.76-1.3-2.44-2.97-3.42-.39-.23-.66.07-.49-.82l20.3-.75-1.05,2c1.35,4.7,3.82,9.33,5.17,13.98.16.56-.17.63.77.54.67-2.3,10.7-15.25,10.38-16.16-.21-.58-.93-.87-.24-1.3.74-.46,3.25-.09,4.34-.17.64-.05,1.22-.35,1.86-.4,1.18-.09,2.4.08,3.58,0,.16-.64-.24-.75-.56-1.13-21.81-25.96-62.32-29.93-93.97-31.92l-16.36-.18c1.08-1.04,2.88-.43,4.3-.59,9.78-1.11,19.2-1.51,28.98-2.22,3.68-.27,7.09-1.03,10.88-1.15,4.47-.13,8.74.77,13.16,1.15,6.16.52,12.29.91,18.42,1.5.41.04,2.09.27,2.08-.38ZM99.63,154.7c6.95,1.35,13.85,3.15,20.89,4.11,47.51,6.49,103.86-1.63,147.28-22.55,3.35-1.62,6.91-3.43,10.14-5.27,2.75-1.57,5.78-3.3,8.14-5.38l-19.07,7.61c-18.73,6.72-38.11,12.02-57.83,15.07-15.39,2.38-30.83,2.98-46.23,4.51-19.19,1.9-38.12,3.22-57.5,1.91-1.54-.1-2.75-.43-4.5-.39-.45.01-1.4-.28-1.31.37Z"/>
        <path class="cls-1" d="M16.93,69.86l-14.38-1.22c-3.1-.44-3.19-1.92-1.23-4.05.9-.98,2.02-1.99,3.01-3,4.46-4.61,10.43-9.34,15.42-13.5,3.65-3.05,7.67-4.81,11.59-7.2,3.33-2.03,6.54-4.29,9.91-6.25C71,17.29,108.85,6.14,143.06,1.94c49.49-6.07,100.88,2.12,145.28,24.93.45.23,2.12,1.22,2.22,1.54.4,1.31-1.05,1.39-2.03,1.28-2.61-.31-7.06-2.17-9.89-2.89-59.41-15.19-123.67-9.95-181.01,11.25-22.3,8.25-51.86,22.4-69.45,38.38-4.25,3.86-7.23,8.81-11.83,12.21-1.88-2.21-.36-5.17-.18-7.68.15-2.02.18-4.04.34-6.04.14-1.68.28-3.37.4-5.05ZM285.7,27.06c-.94-1.09-2.8-1.84-4.14-2.44C253.63,12.2,221.61,3.84,191.15,1.92,128.41-2.02,55.92,18.16,8.47,60.1c-2.49,2.21-5.59,3.83-7.33,6.75l17.29,2.26c-.86,4.01-.83,8.17-1.52,12.19l.2,4.7c1.37-1.02,2.28-2.6,3.37-3.76,10.87-11.53,23.36-19.76,37.15-27.47C111.29,24.79,181.78,11.46,242.63,18.46c9.91,1.14,19.93,3.01,29.62,5.34,4.5,1.08,8.82,2.84,13.45,3.27Z"/>
        <path class="cls-1" d="M497.9,34.95c.99.26.42,3.6.57,4.5l2.25-2.82c4.87-4.41,13.73-3,15.43,3.72.33,1.29,1.01-.75,1.18-1.02,5.44-8.77,18.65-6.23,20.22,4.47.09.65.4,2.98.4,3.35v18.77s-.52.56-.56.56h-6.39s-.56-.52-.56-.56v-19.9c0-.17-.79-2.42-.97-2.79-2.1-4.37-7.81-3.37-9.87.59-.51.97-1.56,4.29-1.56,5.2v16.89s-.52.56-.56.56h-6.58c-.29-5.84.39-12.04.01-17.84-.06-.95-.3-2.73-.47-3.66-1.02-5.56-7.41-6.03-10.14-1.66-.56.89-1.8,4.05-1.8,4.95v17.64s-.52.56-.56.56h-6.39s-.56-.52-.56-.56v-30.41s.52-.56.56-.56c1.52,0,5.25-.3,6.39,0Z"/>
        <path class="cls-1" d="M430.42,107.03v18.4h20.3v-18.4h7.52v44.67h-7.52v-19.9h-20.3v19.9h-6.95s-.56-.52-.56-.56v-44.11h7.52Z"/>
        <path class="cls-1" d="M606.72,106.65v45.05h-7.14v-3.75c-.99.53-1.59,1.57-2.44,2.25-5,4.02-13.38,2.66-17.68-1.87-9.49-10-3.46-30.67,12.01-28.89,3.39.39,5.89,2.48,8.11,4.86v-17.64h7.14ZM588.94,125.87c-7.95,1.69-8.59,16.88-.84,19.84,3.83,1.46,7.76.3,10.15-3.03,1.56-2.18,1.54-4.68,1.31-7.28-.53-5.82-4.13-10.91-10.62-9.53Z"/>
        <path class="cls-1" d="M450.72,21.81v6.38h-20.3v12.39h19.17v6.38h-18.61s-.56.52-.56.56v18.96h-6.95s-.56-.52-.56-.56V21.81h27.82Z"/>
        <path class="cls-1" d="M476.47,66.48c-.89-.23-.49-2.56-.57-3.38-3.57,3.16-6.97,4.6-11.85,4.14-3.9-.37-8-3.28-9.03-7.12-1.46-5.42,1.32-10.39,6.6-12.22.5-.17,3.31-.94,3.57-.94h10.34c.27-6.78-7.24-8.31-12.38-5.79-.71.35-3.24,2.47-3.56,2.4-1.54-1.25-2.68-2.83-3.98-4.3,4.49-4.53,12.26-6.39,18.33-4.42,12.86,4.17,7.64,20.53,8.74,30.71.04.31-.39.93-.57.93-1.36,0-4.62.27-5.64,0ZM475.53,51.84h-8.08c-.13,0-2.21.69-2.54.84-4.37,1.93-3.52,8.04,1.12,8.84,3.18.55,6.66-.67,8.55-3.31,1.43-2.01.88-4.05.96-6.37Z"/>
        <path class="cls-1" d="M634.91,151.7l-.19-3.38c-5.4,6.49-18.57,5.68-20.78-3.28-1.51-6.13,2.31-10.86,8.16-12.32.42-.1,2.34-.54,2.46-.54h9.96c.16-7.32-8.05-8.31-13.29-5.2-.58.34-2.11,1.92-2.64,1.8-1.48-1.3-2.83-2.71-3.99-4.3,4.68-4.21,11.17-6.14,17.37-4.59,3.73.93,7.24,3.46,8.64,7.14.27.71,1.05,3.64,1.05,4.21v19.9s-.52.56-.56.56h-6.2ZM634.54,137.06h-7.33c-.13,0-2.1.44-2.46.54-2.49.72-4.16,2.86-3.57,5.48,1.28,5.69,9.31,4.43,12.24.55,1.61-2.12,1.07-4.08,1.12-6.57Z"/>
        <path class="cls-1" d="M510.49,120.54v20.84c0,.12.65,1.93.8,2.21,1.74,3.15,6.21,3.48,8.96,1.53.67-.48,3.4-3.53,3.4-4.11v-20.46h7.52v30.6s-.52.56-.56.56h-6.39c-1,0-.26-3.73-.75-3.76-4.65,7.04-16.69,5.97-19.55-2.25-.17-.49-.94-3.31-.94-3.57v-21.59h7.52Z"/>
        <path class="cls-1" d="M568,151.7h-7.14v-18.96c0-.51-.69-2.9-.94-3.56-2.23-5.78-9.63-3.87-11.65,1.5-.21.55-.94,2.84-.94,3.19v17.83h-6.95s-.56-.52-.56-.56v-30.6h7.52c.02,1.06-.03,2.13,0,3.19.01.43-.24,1.03.37.93,3.53-6.99,14.31-7.06,18.37-.51.61.98,1.94,4.18,1.94,5.2v22.34Z"/>
        <path class="cls-1" d="M583.23,34.95c.4.11,1.03,1.67,1.23,2.15,2.31,5.63,4.26,11.87,6.39,17.64.37.99.77,2.04.84,3.11l.77-.53,8.43-22.37h6.95c.07.43-.03.75-.17,1.14-3.39,9.76-7.97,20.49-11.94,30.12-1.47,3.55-2.8,7.78-5.92,10.23-2.86,2.25-7.06,2.02-10.53,2.06v-6.38c5.31.57,8.53-.42,9.03-6.18l-11.57-29.02-.47-1.98c1.86.33,5.34-.45,6.95,0Z"/>
        <path class="cls-1" d="M473.28,120.54l8.08,22.9,8.65-22.9h7.33l-13.72,34.54c-1.4,2.99-2.97,6.32-6.2,7.7-.46.2-2.91.93-3.2.93h-5.83v-6.38h5.45c.24,0,1.95-1.14,2.24-1.51.47-.59,1.67-3.59,1.62-4.24l-12.32-31.04h7.89Z"/>
        <path class="cls-1" d="M562.74,21.43h6.95s.56.52.56.56v43.92s-.52.56-.56.56h-6.39s-.56-.52-.56-.56V21.43Z"/>
        <path class="cls-1" d="M553.72,34.95v30.97s-.52.56-.56.56h-6.39s-.56-.52-.56-.56v-30.41s.52-.56.56-.56h6.95Z"/>
        <path class="cls-1" d="M657.47,120.54v31.16h-6.95s-.56-.52-.56-.56v-30.6h7.52Z"/>
        <path class="cls-1" d="M652.09,105.6c3.46-.76,6.35.96,6.15,4.64-.37,6.82-11.17,4.91-8.87-2.1.28-.86,1.84-2.34,2.72-2.54Z"/>
        <path class="cls-1" d="M549.49,20c2.09-.32,4.79,1.7,5,3.86.22,2.32-.39,4.06-2.64,4.9-6.82,2.53-9.15-7.71-2.36-8.76Z"/>
        <path class="cls-1" d="M93.23,113.04c2.33-2.46,4.21-5.23,5.95-8.14,3.83-6.4,7.25-13.36,10.9-19.9,1.57-2.82,4.82-7.2,5.79-9.99s-.53-1.81-1.96-3.64l21.03-1.11c.25,1.4.51,2.82.87,4.2,2.57,9.73,4.68,20.01,7.6,29.58.37,1.22.79,2.46,1.24,3.65.17.44.45,1.04.83.48l6.76-35.51c.27-1.37-.83-2.17-1.49-3.15l21.05-1.13,2.63,20.27,10.14-20.85c1.92-.4,3.91-.06,5.85-.16,4.86-.25,9.72-.98,14.65-.76.39.02.83-.02.56.56-.33.7-1.2,1.55-1.58,2.55-.26.67-.39,1.37-.57,2.06-1.74,6.79-2.99,15.08-4.2,22.08-.45,2.62-1.85,8.53-1.46,10.77.14.79.76,1.76.88,2.51.08.48-.07.52-.43.73l-18.57.78c1.87-1.91,2.33-4.14,2.91-6.66l4.04-21.49-14.28,28.16c-.8.81-10.32,1.11-11.12.57-.67-.45-.25-2.21-.34-3.04-.86-7.49-2.2-14.95-2.67-22.49l-.73-2.09-4.11,22.36c-.03,1.49-.06,3-.04,4.49.01.76.7,1.23-.21,1.64l-25.72,1.16,1.36-2.43-2.14-8.44c-.92.01-1.89-.1-2.81-.03-3.22.24-6.53.56-9.75.77-1.08.07-4.08-.28-4.72.16-1.4,2.53-3.52,5.15-4.57,7.83-.49,1.25-.88,1.91-.3,3.26-.4-.14-.85.38-.94.38h-10.34ZM124.81,93.89c-1.25-3.87-1.73-8.38-3.02-12.19-.14-.41-.18-.89-.74-.95l-7.52,13.51c3.81.23,7.51-.3,11.28-.37Z"/>
        <path class="cls-1" d="M105.64,80.75c-.93-.49-1.76-.69-2.8-.77-5.26-.4-10.73.54-16.01.56-.42.29-1.54,6.98-1.48,8.1,2.19-.07,4.4.09,6.59.01,2.39-.09,5.11-.17,7.52-.38,1.73-.14,3.36-.94,5.07-1.13-.63,2.78-.7,5.79-1.29,8.65l-19.72,1.14-2.31,13.66c-.5,1.09,1.31,2.84.4,3.39-.73.45-3.26.09-4.34.17-3.35.24-6.8.35-10.13.77l-3.58-.2c.02-.63,1.23-1.82,1.58-2.55,1.98-4.04,3.49-15.39,4.39-20.39.69-3.81,2.59-11.51,2.27-14.95-.06-.59-.84-3.1-.72-3.22.8-.06,1.66.09,2.45,0,9.33-.93,18.8-1.29,28.17-1.9.89-.06,2.54-.13,3.35,0,.16.02.61.9.61.96v8.07Z"/>
        <path class="cls-1" d="M245.85,64.61l-2.16,4.79-5.73,29.37c1.13.26,2.17-.32,3.18-.38,3.74-.22,7.54.11,11.26-.39,2.15-.29,4.15-1.33,6.23-1.85.44.46-2.11,7.45-2.43,8.64-.48.69-2.2.26-3.03.35-10.52,1.17-21.47.66-31.97,1.86-.56.06-1.11.03-1.67.02l2.07-4.13c1.98-10.3,4.55-20.64,6.16-31.02.37-2.37.75-3.99-.71-6.15l18.79-1.13Z"/>
        <path class="cls-1" d="M225.93,65.73l-2.17,4.03c-1.25,10.35-5.1,21.62-6.07,31.85-.2,2.06.41,3.47.72,5.42l-18.79.75c1.13-1.77,1.99-3.48,2.54-5.54,2.77-10.45,3.67-22.33,6.14-32.94l-.78-2.82,18.42-.75Z"/>
        <path class="cls-1" d="M145.49,45.09c.19,1.6-.41,3.04-.94,4.51-1.21,3.34-3.26,6.65-4.77,9.88-1.07,2.28-1.93,4.71-2.93,7.02h-6.77c-.67-1.89-.1-3.91-.76-5.81l-.18-3.95c-1.93,3.11-3.05,6.69-4.68,9.97-2.27.31-4.49.7-6.79.54.31-1.38-.31-2.71-.39-3.93-.27-4.39-.17-8.82-.72-13.17-.16-1.29.18-2.37-.78-3.54,2.26-.22,4.46-.56,6.75-.36l.78,5.79c0,1.25-.04,2.51-.01,3.77,0,.45-.28,1.4.37,1.31l4.69-10.9c.51-.52,5.94-1.01,6.19-.72.61,2.14.33,4.32.42,6.52l.73,4.34,3.78-9.92c0-.34-1.5-.37-1.15-1.34h7.14Z"/>
        <path class="cls-1" d="M108.27,117.92c-1.16,2.17-1.61,4.7-1.88,7.13l4.12-.02c.32-2.5,1.71-4.99.77-7.49,2.77,0,5.47-.63,8.27-.37-.5,1.04-.76,2.17-1.02,3.29-.71,3.09-3.2,13.53-2.67,15.97.09.4.76,1.31.68,1.38-3.24.49-6.49.4-9.77.38,2.26-2.43,2.63-5.84,3.01-9.01h-4.51c.24,2.95-1.92,6.44,0,9.01-.53-.23-1.17.38-1.32.38h-9.21c2.1-1.95,2.3-4.71,2.9-7.43.67-3.03,1.85-7.83,2.01-10.78.06-1.03-.23-1.29-.78-2.06.53.23,1.17-.38,1.32-.38h8.08Z"/>
        <path class="cls-1" d="M183.83,134.06c.91-1.03,1.07-2.01,1.4-3.3,1-3.96,2.22-10.16,2.71-14.19.11-.92-.01-1.87.03-2.79.68-.05,1.41.09,2.08.01,3.46-.39,7.03-.53,10.5-.77,1.42-.1,4.3,0,5.27,1.14.4.46.97,2.57.97,3.19-.02,2.86-1.26,8.48-2.27,11.27-1.34,3.69-2.05,4.72-6.2,5.07-2.79.23-5.86.26-8.64.38-1.94.08-3.9-.08-5.84-.01ZM199.24,117.54c-1.01.17-3.8-.39-4.33.37-.31.45-.68,2.23-.84,2.92-.67,2.98-.9,6.12-1.6,9.1,1.72-.12,3.66.61,4.68-1.14.69-1.19,1.44-5.4,1.68-6.96.1-.63.56-4.14.41-4.29Z"/>
        <path class="cls-1" d="M236.64,40.58c.28.08.77.95.79,1.3l-4.02,19.69c-1.12-.32-3.39.74-4.12.24-.6-.42-3.56-7.64-4.42-9.11-.17-.29-.28-1.12-.83-.49-.05.06-.02,1.13-.1,1.59-.37,2.17-.93,4.34-1.4,6.5-.03.32.15.53.34.76.41.46,1.19.32,1.15.91-.51-.21-1.17.38-1.31.38h-6.2c.67-6.83,3.18-13.44,3.76-20.27-.54.04-1.06,0-1.6-.1-.37-.06-1.5-.15-1.41-.65,2.93.37,5.78-.66,8.66-.2l4.5,8.08c.53-2.46,1.18-4.98,1.13-7.51-.31-.31-2.67.69-2.26-.75.5.22,1.18-.38,1.32-.38,1.39,0,5-.28,6.01,0Z"/>
        <path class="cls-1" d="M168.42,121.67l-1.92,12.91-.56.56c-1.56-.12-2.83.67-4.28.04,1.43-2.99,1.95-6.38,2.59-9.61.45-2.29,1.49-6.51,1.57-8.6.03-.8-.33-1.33-.4-2.06,2.9.16,5.74-.85,8.67-.21l5.24,13.73c.21-2.15.46-4.35.85-6.48.32-1.72,1.32-4.59,1.41-6.13.03-.62-.38-1.07-.38-1.65.92-.15,4.27-.95,4.51.21.04.18-.87,2.8-1.02,3.46-1.17,5.27-2.02,10.65-2.78,15.99-.28,1.05-4.23.53-5.42.6-.8.04-1.77.72-2.46.22-.43-.31-3.27-8.52-3.92-9.97-.43-.95-.89-2.43-1.69-3Z"/>
        <path class="cls-1" d="M207.42,41.8c2.15-.26,6.42-.05,7.99,1.59,3.62,3.77,1.42,11.82-1.19,15.72-3.12,4.64-15.97,6.21-17.15-.78s2.51-15.59,10.35-16.53ZM207.77,46.28c-2.35.53-3.83,4.84-4.31,6.96s-.81,4.98,2.07,5.3c3.42.38,5.43-5.76,5.71-8.41.25-2.32-.91-4.43-3.48-3.85Z"/>
        <path class="cls-1" d="M164.66,64.98c-3.23.37-6.48.46-9.77.38.83-.75.1-4.85-.41-5.22-.88-.63-7.05.67-8.57.38-.7,1.19-2.08,4.78-3.06,5.39-1.31.83-3.1.67-4.5.2l10.73-19.13c.14-.28.25-.62.16-.93-.18-.61-1.21-.32-1.12-.96,1.18-.07,2.41.1,3.58,0,1.82-.13,3.31-.35,5.27-.38.44,0,.93-.3,1.13-.29.62.04,1.3,2.97,1.49,3.65,1.6,5.63,2.19,11.8,5.07,16.9ZM148.12,56.72h5.26l-.09-1.6c-.29-.58-.97-4.41-1.23-4.41-.71.01-1.29,1.21-1.62,1.76-.83,1.38-1.3,2.97-2.32,4.25Z"/>
        <path class="cls-1" d="M152.63,115.66c-1.4,2.83-1.98,6.18-2.53,9.3-.28,1.61-.71,3.58-.86,5.15-.04.42-.14,1.66.22,1.7,2.19.29,4.93-.8,7.28-.41l2.64-13.32c.41-.79-.32-2.21-.29-2.61.07-.97,3.94-.41,4.83-.55.32.3-.88,3.98-1.03,4.79-.67,3.54-1.28,13.31-4.24,15.28-1.93,1.28-5.12.8-7.33.94s-4.73.79-7.06.32c-2.71-.56-2.69-3.38-2.49-5.72.34-3.85,1.67-8.15,2.2-12.06.1-.75-.09-1.53,0-2.19.02-.16.9-.6.96-.6h7.71Z"/>
        <path class="cls-1" d="M229.69,131.8c-2.87.56-5.82.07-8.64.75.15-1.91-.26-3.78-.78-5.6-.97-.27-1.87.3-2.78.36-1.54.09-3.72-.3-5.11.16-1.49.49-2.67,3.95-3.01,5.44l-5.24.39,2.7-4.25,8.42-15.27-.59-1.51c1.43-.08,2.91.1,4.33,0,1.11-.07,4.56-1.02,5.26-.02l5.44,19.53ZM218.03,117.54c-.5-.71-.68.28-.83.49-1.26,1.72-2.25,4.02-3.3,5.9,1.82-.36,5.58,1.14,5.18-1.59-.09-.62-.9-4.59-1.04-4.79Z"/>
        <path class="cls-1" d="M196.61,42.46l-1.15,4.49c-1.38.19-7.08-.33-7.82.44-.56.59-.23,2.02.55,2.54,2.33,1.56,6.76.37,7.27,4.38.59,4.64-1.13,8.87-6.2,9.53-1.48.19-4.07.34-5.61.4-1.15.05-5.63.38-5.72-.93-.09-1.43.98-3.58,1.01-5.09,1.27-.4,1.69,1.2,2.5,1.44,1.36.4,6.73-.07,7.21-1.69.93-3.11-4.3-2.34-6.11-3.55-2.68-1.8-1.47-7.85.51-9.92,1.78-1.85,3.65-1.44,5.85-1.67.65-.07,1.22-.36,1.86-.4,1.92-.11,3.91.1,5.84.01Z"/>
        <path class="cls-1" d="M143.23,116.04c-1.85,2.56-3.97,4.95-5.8,7.54s-4.46,6.09-4.74,9.16c-.13,1.39.11,2.92.01,4.33-2.9-.07-5.71.64-8.65.37-.29-.28,1.87-6.39,1.69-7.92s-1.94-5.84-2.64-7.47-1.7-3.23-2.44-4.88c2.95-.67,6.01-.28,9.02-.38,0,.53-.07,1.09.07,1.62.4,1.51,1.52,4.18,2.17,5.72.16.39.25.88.77.92,1.44-3.1,3.93-5.67,4.89-9.01h5.64Z"/>
        <path class="cls-1" d="M180.03,48.06l-5.2.06c-.5,1.83-.99,3.67-1.43,5.52-.58,2.45-1.83,7.05-1.9,9.36-.02.68.47,1.04.66,1.61-2.38.13-4.72.58-7.14.38-.62-.61,2.71-14.59,3.38-16.52-2.22.13-4.11.15-5.64,1.88-.2-2.05.84-3.97.75-6.01,1.3-.07,2.66.1,3.96.01,3.98-.27,8.03-.7,12.03-.75.48,0,1-.34,1.12-.33,1.42.1-.51,4.1-.61,4.79Z"/>
        <path class="cls-1" d="M242.09,111.16c.07.43-.03.75-.17,1.14-1.03,2.94-1.82,6.53-2.37,9.65s-.87,6.3-1.23,9.47c-2.74.26-5.47.53-8.26.38,1.57-6.67,3.17-13.44,3.76-20.27,2.74-.24,5.48-.53,8.27-.37Z"/>
        <path class="cls-1" d="M179.32,28.94c.3.25-.45.62-.75.37s.45-.62.75-.37Z"/>
        <path class="cls-1" d="M65.38,34.53l-10.12,4.72c-.58.51-.34,1.34-.37,2.07,2.87-1.3,6.07-3.68,9-4.71.39-.14.73-.23,1.15-.17-.05.96.8,2.15.2,3.02-.64.95-7.61,3.48-8.99,4.54-1.1.52-.7,2.1.54,1.67.5-.17,1.06-.76,1.59-1.04,1.39-.73,6.48-3.54,7.58-3.69.78-.11.5.07.55.57.1.98.45,1.84.36,2.79-2.07.41-14,7.75-14.82,7.53s-.49-2.09-.59-2.79c-.5-3.4-1.24-6.8-1.86-10.18l.17-.56,14.37-7.07c1.74-.35,1.24,2.03,1.21,3.29Z"/>
        <path class="cls-1" d="M181.16,4.96c.49.99,2.99,6.05,3.61,6.34s.56-.43.74-.75c.54-.96,2.47-5.4,3.07-5.59.65-.2,4.88-.14,5.41.13,1.14.59,2.49,4.52,3,5.83.56.12.61-.06.92-.39.9-.97,2.76-4.81,3.46-5.26,1.15-.73,2.71-.04,4.07.03,1.96.09.64.61.03,1.52-1.76,2.64-3.63,5.21-5.33,7.88-1.31-.28-5.29.4-6.17-.19s-1.56-4.55-2.8-5.46c-.56,0-2.26,4.92-3.19,5.45-2.05.41-4.08.68-6.17.57-.46-.07-.81-2.16-1.08-2.56-.08-.11-.48-.08-.64-.35-1.38-2.23-2.66-4.52-4.14-6.69l3.18-.57,2.04.05Z"/>
        <path class="cls-1" d="M47.75,39.83l2.22,13.86c-1.41.47-2.74,1.35-3.91,2.28-1.37-1.24-.78-3.31-1.5-4.88l-7.55,5.25c-.34.45.94,4.04.53,5.39-.19.65-3.69,2.93-4.07,2.5l-2.23-11.85c-.6-2.28,1.49-3.29,3.16-4.3.31-.19.43-.5.95-.36.31,1.3.52,2.62.76,3.94.06.31-.09.87.55.56.26-.12.6-.67.97-.91.98-.66,5.9-3.54,6.2-3.95.49-.69-.62-4.13-.55-5.24.78-.06,4.14-2.7,4.48-2.29Z"/>
        <path class="cls-1" d="M87.65,34.14c-.21-.15-.3-1.46-1.29-1.39l-8.67,3.67c-.46.32-.53,2.36-1.07,2.94s-5.05,2.82-5.55,2.34l5.87-16.92,6.04-2.56.87.13,9.39,9.77c0,.45-4.78,2.58-5.59,2.01ZM83.84,30.44c.14-.57-.13-.61-.37-.94-.63-.83-1.79-1.78-2.63-2.44l-1.5,4.88,4.51-1.5Z"/>
        <path class="cls-1" d="M140.6,12.05c.59,1.58.28,3.09.36,4.7.04.82.72,1.73.22,2.45-.19.27-2.95.69-3.69.83-.31.06-.54.46-.85-.09-.19-.34-.48-1.66-.53-2.11-.31-2.82.04-5.97-.78-8.8,2.66-.29,5.34-1.22,8.03-1.07l5.54,4.23,2.98,1.72c.24-2.29-.33-4.48-.34-6.72l4.26-.77c.96.19.5,2.73.58,3.56.06.65.37,1.23.4,1.86.05,1.07.18,4.02-.05,4.85-.27.95-1.9.51-2.75.63-1.07.15-3.59.86-4.46.68-.94-.2-3.95-2.89-5.03-3.64l-3.88-2.32Z"/>
        <path class="cls-1" d="M175.56,5.29v2.63c-1.56.07-3.15-.1-4.71-.01-.64.04-1.22.36-1.86.4-1.8.12-4.58-.74-5.46,1.11,1.15.63,1.85.01,2.81-.01,2.86-.06,5.66.06,8.47-.36v2.63c-1.56.07-3.15-.1-4.71-.01-1.42.08-3.45.24-4.86.4-1.04.12-1.59.36-1.33,1.48,3.89-.13,7.73-.87,11.66-.75v2.63s-16.52,1.1-16.52,1.1c-.36-2.78-.78-6.79-.4-9.56.04-.3.09-.58.36-.76l16.56-.92Z"/>
        <path class="cls-1" d="M30.46,51.47c.22.25.8,3.36.59,3.76-.38.71-3.9,2.74-4.72,3.56l-.4.75,1.93,10.47c-.79.3-3.47,3-3.97,2.85-.82-.25-.48-1.75-.59-2.41-.43-2.45-1.09-4.89-1.48-7.35l-4.7,3.75c-.66,0-1.04-3.24-1.28-3.9,3.47-2.89,6.72-6.1,10.3-8.86.77-.6,2.52-2.09,3.19-2.45.3-.16,1.02-.3,1.13-.18Z"/>
        <path class="cls-1" d="M97.74,17.3l1.51,9.39,10.15-3.38.35,3.73-13.77,4.45-1.61.08c-.45-3.04-.71-6.13-1.16-9.17-.1-.67-.75-2.66-.68-3,.17-.81,4.28-1.8,5.23-2.1Z"/>
        <path class="cls-1" d="M114.66,13.17c-.15,1.97.47,3.91.73,5.84.1.78-.25,2.17.39,2.62.52.36,7.36-1.95,8.55-1.99,2.36-.78,1.97,1.59,1.98,3.29-2.08-.38-14.77,4.03-15.42,3.58-.44-.31-.33-.69-.38-1.12-.31-2.49-.5-5-.76-7.5-.13-1.24-.64-2.56-.33-3.95,1.79-.26,3.39-1.02,5.25-.77Z"/>
        <path class="cls-1" d="M134.94,15.07c.14.17.55,2.7.37,2.96-.2.29-6.18,1.45-6.96,1.52-1.87.17-.96-1.7-1.6-2.82.07-.14.16-.29.3-.37.55-.31,5.3-1.17,6.25-1.28.37-.04,1.55-.12,1.64,0Z"/>
      </g>
      <rect class="cls-1" x="376.58" y="2.01" width="4.11" height="165.93"/>
    </g>
  </g>
</svg>