<svg width="24" height="24" viewBox="0 0 24 24" fill="none" xmlns="http://www.w3.org/2000/svg">
<path d="M17.7759 8.81847C17.6887 8.81843 17.6042 8.78802 17.5369 8.73247C17.4697 8.67692 17.4239 8.59969 17.4074 8.51404C17.0315 6.55436 16.8168 6.33973 14.8571 5.96383C14.7715 5.94735 14.6942 5.90154 14.6387 5.83428C14.5831 5.76702 14.5527 5.68251 14.5527 5.59528C14.5527 5.50804 14.5831 5.42353 14.6387 5.35627C14.6942 5.28901 14.7715 5.24321 14.8571 5.22673C16.8171 4.85054 17.0315 4.63589 17.4074 2.67651C17.4238 2.59084 17.4696 2.51358 17.5369 2.45802C17.6041 2.40246 17.6887 2.37207 17.7759 2.37207C17.8631 2.37207 17.9477 2.40246 18.0149 2.45802C18.0822 2.51358 18.128 2.59084 18.1445 2.67651C18.5203 4.63589 18.7347 4.85054 20.6947 5.22673C20.7803 5.24321 20.8576 5.28901 20.9131 5.35627C20.9687 5.42353 20.9991 5.50804 20.9991 5.59528C20.9991 5.68251 20.9687 5.76702 20.9131 5.83428C20.8576 5.90154 20.7803 5.94735 20.6947 5.96383C18.735 6.3397 18.5203 6.55436 18.1445 8.51404C18.1279 8.59969 18.0821 8.67692 18.0149 8.73247C17.9476 8.78802 17.8631 8.81843 17.7759 8.81847ZM16.4187 5.59528C16.7355 5.69915 17.0234 5.8761 17.2592 6.11182C17.4949 6.34754 17.672 6.63543 17.7759 6.95222C17.8798 6.63543 18.0569 6.34754 18.2926 6.11182C18.5284 5.8761 18.8163 5.69915 19.1332 5.59528C18.8164 5.49131 18.5285 5.31433 18.2928 5.07862C18.057 4.84291 17.8799 4.55507 17.7759 4.23833C17.6719 4.55507 17.4948 4.8429 17.2591 5.07861C17.0233 5.31432 16.7354 5.49131 16.4187 5.59528Z" fill="url(#paint0_linear_2077_4877)"/>
<defs>
<linearGradient id="paint0_linear_2077_4877" x1="14.5527" y1="5.59527" x2="20.9991" y2="5.59527" gradientUnits="userSpaceOnUse">
<stop stop-color="#6DF5E5"/>
<stop offset="0.47" stop-color="#8BF3EC"/>
<stop offset="1" stop-color="#118174"/>
</linearGradient>
</defs>
</svg>
