<svg xmlns="http://www.w3.org/2000/svg" width="24" height="24" viewBox="0 0 24 24" fill="none">
  <path d="M18.1897 12.9131C12.6282 11.8454 11.8685 11.0857 10.8013 5.52416C10.7848 5.43849 10.739 5.36124 10.6718 5.30568C10.6045 5.25012 10.52 5.21973 10.4327 5.21973C10.3455 5.21973 10.261 5.25012 10.1937 5.30568C10.1265 5.36124 10.0807 5.43849 10.0642 5.52416C8.99702 11.0857 8.23733 11.8454 2.67552 12.9131C2.58987 12.9295 2.51262 12.9753 2.45706 13.0425C2.40149 13.1097 2.37109 13.1942 2.37109 13.2814C2.37109 13.3686 2.40149 13.4531 2.45706 13.5203C2.51262 13.5875 2.58987 13.6332 2.67552 13.6496C8.23731 14.7171 8.99702 15.4762 10.0642 21.0383C10.0808 21.1239 10.1266 21.2011 10.1938 21.2566C10.2611 21.3121 10.3456 21.3424 10.4327 21.3424C10.5199 21.3424 10.6044 21.3121 10.6717 21.2566C10.7389 21.2011 10.7847 21.1239 10.8013 21.0383C11.8685 15.4762 12.6282 14.7171 18.1897 13.6496C18.2753 13.6332 18.3526 13.5875 18.4081 13.5203C18.4637 13.4531 18.4941 13.3686 18.4941 13.2814C18.4941 13.1942 18.4637 13.1097 18.4081 13.0425C18.3526 12.9753 18.2753 12.9295 18.1897 12.9131Z" fill="url(#paint0_linear_2077_4875)"/>
  <defs>
    <linearGradient id="paint0_linear_2077_4875" x1="2.37109" y1="13.2811" x2="18.4941" y2="13.2811" gradientUnits="userSpaceOnUse">
      <stop stop-color="#70EFDC"/>
      <stop offset="0.47" stop-color="#249388"/>
      <stop offset="1" stop-color="#93FFF2"/>
    </linearGradient>
  </defs>
</svg>
