<svg width="47" height="47" viewBox="0 0 47 47" fill="none" xmlns="http://www.w3.org/2000/svg">
<g clip-path="url(#clip0_num4)">
<g filter="url(#filter0_d_num4)">
<path d="M23.4998 39.9296C32.5736 39.9296 39.9294 32.5739 39.9294 23.5001C39.9294 14.4263 32.5736 7.07056 23.4998 7.07056C14.4261 7.07056 7.07031 14.4263 7.07031 23.5001C7.07031 32.5739 14.4261 39.9296 23.4998 39.9296Z" fill="#48B7AE"/>
</g>
<g filter="url(#filter1_d_num4)">
<g transform="translate(23.5, 23.5) scale(0.2201) translate(-125, -130)">
  <path d="M91.39,157.02v-13.59l35.14,-55.5h11.67v18.95h-6.94l-22.5,35.59v.68h49.86v13.87h-67.23Z" fill="white"/>
  <path d="M131.6,171.97v-19.06l.34,-6.09v-58.88h16.19v84.04h-16.53Z" fill="white"/>
</g>
</g>
</g>
<defs>
<filter id="filter0_d_num4" x="-2.92969" y="-2.92944" width="52.8594" height="52.8591" filterUnits="userSpaceOnUse" color-interpolation-filters="sRGB">
<feFlood flood-opacity="0" result="BackgroundImageFix"/>
<feColorMatrix in="SourceAlpha" type="matrix" values="0 0 0 0 0 0 0 0 0 0 0 0 0 0 0 0 0 0 127 0" result="hardAlpha"/>
<feOffset/>
<feGaussianBlur stdDeviation="5"/>
<feColorMatrix type="matrix" values="0 0 0 0 0.192157 0 0 0 0 0.788235 0 0 0 0 0.619608 0 0 0 1 0"/>
<feBlend mode="normal" in2="BackgroundImageFix" result="effect1_dropShadow_num4"/>
<feBlend mode="normal" in="SourceGraphic" in2="effect1_dropShadow_num4" result="shape"/>
</filter>
<filter id="filter1_d_num4" x="6.1" y="4.2" width="34.8" height="38.5" filterUnits="userSpaceOnUse" color-interpolation-filters="sRGB">
<feFlood flood-opacity="0" result="BackgroundImageFix"/>
<feColorMatrix in="SourceAlpha" type="matrix" values="0 0 0 0 0 0 0 0 0 0 0 0 0 0 0 0 0 0 127 0" result="hardAlpha"/>
<feOffset/>
<feGaussianBlur stdDeviation="5"/>
<feColorMatrix type="matrix" values="0 0 0 0 1 0 0 0 0 1 0 0 0 0 1 0 0 0 0.82 0"/>
<feBlend mode="normal" in2="BackgroundImageFix" result="effect1_dropShadow_num4"/>
<feBlend mode="normal" in="SourceGraphic" in2="effect1_dropShadow_num4" result="shape"/>
</filter>
<clipPath id="clip0_num4">
<rect width="47" height="47" fill="white"/>
</clipPath>
</defs>
</svg>
