<?xml version="1.0" encoding="UTF-8" standalone="no"?>
<!DOCTYPE svg PUBLIC "-//W3C//DTD SVG 1.1//EN" "http://www.w3.org/Graphics/SVG/1.1/DTD/svg11.dtd">
<svg width="169" height="63" viewBox="955.5 534.5 169 63" version="1.1" xmlns="http://www.w3.org/2000/svg" xmlns:xlink="http://www.w3.org/1999/xlink" xml:space="preserve" xmlns:serif="http://www.serif.com/" style="fill-rule:evenodd;clip-rule:evenodd;stroke-linejoin:round;stroke-miterlimit:2;">
    <g transform="matrix(1,0,0,1,955.5,534.5)">
        <path d="M169,0L169,63L0.588,63C0.546,63 0,62.448 0,62.406L0,0L169,0ZM167.431,1.586L1.96,1.586L1.96,61.02L167.431,61.02L167.431,1.586Z" style="fill:white;fill-rule:nonzero;"/>
        <path d="M29.017,15.057C29.013,15.715 29.008,16.38 29.017,17.038C33.298,16.946 36.202,18.09 39.016,21.395C39.853,22.376 39.853,22.396 39.016,23.379C36.935,25.823 33.385,28.907 29.989,28.527C29.568,28.48 29.319,28.224 29.017,28.132C29.008,28.659 29.024,29.192 29.017,29.718C25.958,30.016 22.073,25.956 21.604,23.118C21.342,21.53 28.258,18.653 29.017,19.416C29.073,19.471 29.075,20.944 29.017,20.995C28.925,21.075 28.373,20.938 28.053,21.006C27.14,21.201 24.756,22.124 24.685,23.176C24.544,25.25 27.207,27.586 29.019,28.131C29.057,25.891 28.99,23.635 29.019,21.395C30.982,21.294 32.445,23.267 32.94,24.961C33.866,25.052 34.397,23.978 35.086,23.366C36.055,22.504 37.335,22.648 35.672,21.209C33.958,19.727 31.262,18.751 29.017,19.018C29.01,18.36 29.028,17.694 29.017,17.036C28.192,17.054 27.364,16.959 26.54,17.109C23.693,17.62 20.301,20.226 18.448,22.423C20.173,27.093 23.774,31.751 29.019,32.093C29.01,32.751 29.015,33.416 29.019,34.073C24.405,33.719 19.692,30.717 17.067,26.934C16.136,25.591 15.416,23.79 14.552,22.38C18.003,18.901 22.521,16.155 27.334,15.132C27.952,15.001 28.498,15.13 29.019,15.054L29.017,15.057Z" style="fill:rgb(119,185,2);fill-rule:nonzero;"/>
        <path d="M29.017,15.057C29.025,13.871 29.012,12.675 29.017,11.491L51.969,11.48C52.294,11.405 52.936,11.929 52.936,12.086L52.936,36.653C52.936,36.694 52.39,37.246 52.349,37.246L29.017,37.246C29.012,36.194 29.025,35.129 29.017,34.077C34.665,34.51 43.115,32.241 47.977,29.263C48.557,28.908 49.797,28.254 49.799,27.538C49.799,27.25 46.111,25.691 45.681,24.981C43.933,26.451 42.103,28.112 40.132,29.263C36.743,31.241 32.951,32.352 29.016,32.094C29.025,31.437 29.008,30.77 29.016,30.112C31.67,30.364 33.998,29.851 36.347,28.605C37.614,27.931 43.605,23.391 43.909,22.366C44.038,21.933 41.828,19.779 41.376,19.405C38.381,16.93 34.206,14.997 30.377,14.642C29.679,14.578 29.363,15.006 29.016,15.057L29.017,15.057Z" style="fill:rgb(119,185,2);fill-rule:nonzero;"/>
        <path d="M36.857,51.509L36.857,41.603L42.936,41.603C43.05,41.603 44.747,42.606 44.901,42.787C46.105,44.212 46.367,48.449 45.282,49.918C43.738,52.008 39.181,51.43 36.859,51.509L36.857,51.509ZM42.692,44.424C42.337,44.066 39.794,43.783 39.602,43.98L39.602,49.132C42.135,49.468 43.44,48.4 43.133,45.761C43.107,45.544 42.755,44.488 42.692,44.424Z" style="fill:white;fill-rule:nonzero;"/>
        <path d="M18.233,41.603C18.701,41.708 20.594,43.359 20.734,43.832C20.907,45.358 21.704,50.045 20.992,51.127C20.564,51.777 18.307,51.745 18.067,50.886C17.723,49.669 18.206,47.225 18.042,45.761C17.799,43.631 15.877,43.962 14.118,43.98L14.118,50.913C14.118,51.64 11.989,51.554 11.374,51.507L11.374,41.602C13.364,41.896 16.405,41.2 18.235,41.602L18.233,41.603Z" style="fill:white;fill-rule:nonzero;"/>
        <path d="M61.953,51.509C61.12,51.401 59.441,51.834 58.998,51.129C58.598,50.493 59.036,49.675 57.85,49.516C57.24,49.434 55.246,49.415 54.738,49.565C53.941,49.799 53.887,51.301 53.704,51.492C53.541,51.662 51.524,51.41 50.978,51.509C50.911,51.054 50.999,50.72 51.15,50.296C52.043,47.775 53.364,45.307 54.326,42.804C54.489,42.382 54.476,41.657 54.516,41.611C54.653,41.448 58.291,41.457 58.64,41.985C58.781,43.394 62.46,51.008 61.957,51.509L61.953,51.509ZM57.64,47.943L57.571,46.626L56.66,43.982L54.895,47.943L57.64,47.943Z" style="fill:white;fill-rule:nonzero;"/>
        <path d="M24.303,41.611C24.562,43.699 25.553,45.674 25.894,47.74C26.005,48.408 25.645,48.416 26.663,48.341C27.174,46.766 27.596,43.215 28.413,41.985C28.883,41.276 30.521,41.713 31.369,41.605L28.57,50.862C28.096,51.872 24.448,51.872 23.974,50.862L21.176,41.605L24.305,41.612L24.303,41.611Z" style="fill:white;fill-rule:nonzero;"/>
        <path d="M127.044,34.471C127.968,34.431 128.378,34.252 128.221,35.264C129.081,34.466 130.356,34.166 131.504,34.521C131.88,34.638 132.083,35.155 132.377,35.248C132.878,35.405 133.153,34.647 133.565,34.521C134.151,34.342 135.536,34.38 136.074,34.658C136.203,34.724 137.239,35.774 137.239,35.858L137.239,41.604L135.671,41.604C135.301,39.223 136.991,35.579 133.531,36.044C132.692,36.158 132.95,40.57 132.925,41.605L131.358,41.605C131.247,40.264 131.511,38.752 131.361,37.442C131.211,36.132 130.593,35.705 129.23,36.088C128.074,36.413 128.819,40.455 128.611,41.605L127.044,41.605L127.044,34.471Z" style="fill:white;fill-rule:nonzero;"/>
        <path d="M112.928,34.471L112.928,42.594C112.928,42.665 112.317,43.639 112.151,43.788C111.162,44.673 108.07,44.645 107.041,43.788C106.468,43.31 106.685,43.427 107.047,42.992C108.114,41.704 108.157,42.928 108.858,43.142C110.236,43.564 111.568,42.734 111.361,41.209C110.435,41.379 109.82,41.746 108.808,41.609C105.302,41.134 105.667,35.237 108.074,34.519C109.385,34.128 110.366,34.875 111.167,34.877C111.67,34.877 112.252,34.252 112.93,34.473L112.928,34.471ZM110.934,36.09C110.883,36.043 109.659,35.769 109.591,35.77C108.618,35.781 107.738,37.298 107.81,38.233C108.014,40.853 111.791,40.834 111.362,37.44C111.335,37.226 110.986,36.139 110.934,36.09Z" style="fill:white;fill-rule:nonzero;"/>
        <path d="M74.501,5.943L74.501,56.659C74.501,56.699 73.716,56.699 73.716,56.659L73.716,5.943C73.716,5.903 74.238,5.965 74.501,5.943Z" style="fill:white;fill-rule:nonzero;"/>
        <path d="M85.872,32.095C87.358,32.329 89.788,31.75 91.115,32.146C91.191,32.168 92.42,32.891 92.476,32.948C92.695,33.167 92.912,34.245 92.946,34.654C93.228,38.123 90.817,38.699 87.832,38.434L87.832,41.605L85.872,41.605L85.872,32.095ZM90.954,33.693C90.79,33.52 88.419,33.785 87.832,33.679L87.832,36.85C89.285,36.978 91.567,37.053 91.379,35.067C91.363,34.895 91.005,33.746 90.954,33.693Z" style="fill:white;fill-rule:nonzero;"/>
        <path d="M111.751,21C112.429,20.779 113.011,21.405 113.514,21.404C113.908,21.404 114.282,21.035 114.696,21.003C117.075,20.819 118.189,21.427 118.433,23.958C118.798,27.745 116.782,28.914 113.32,27.737L113.32,30.907L111.751,30.907L111.751,21ZM116.412,22.63C115.671,21.917 113.946,22.487 113.505,23.366C112.838,24.696 113.449,26.959 115.083,26.959C116.318,26.959 116.817,25.914 116.869,24.772C116.891,24.294 116.674,22.882 116.412,22.63Z" style="fill:white;fill-rule:nonzero;"/>
        <path d="M35.29,41.604L35.29,50.915C35.29,51.748 32.153,51.748 32.153,50.915L32.153,42.199C32.153,41.406 34.625,41.596 35.29,41.605L35.29,41.604Z" style="fill:white;fill-rule:nonzero;"/>
        <path d="M124.643,34.916C124.737,35.009 125.431,37.119 125.472,37.446C125.639,38.741 125.358,40.274 125.472,41.605C124.731,41.869 123.91,41.224 123.382,41.269C122.106,41.381 121.694,42.674 119.991,41.399C119.018,40.67 118.892,38.849 119.638,38.085C120.164,37.548 123.361,37.373 123.514,37.245C123.56,37.208 123.556,36.101 123.511,36.065C123.455,36.019 122.242,35.637 122.14,35.637C121.819,35.633 118.94,37.736 119.597,35.465C119.94,34.276 123.885,34.166 124.644,34.916L124.643,34.916ZM123.514,38.434C122.903,38.361 120.481,38.893 120.77,39.819C121.162,41.078 124.366,40.56 123.514,38.434Z" style="fill:white;fill-rule:nonzero;"/>
        <path d="M89.402,21.594C89.59,20.903 91.345,20.494 90.971,21.793C91.741,20.781 94.491,20.708 95.236,21.444C95.981,22.18 96.326,26.494 96.038,27.509C95.843,28.2 94.287,28.322 94.108,28.134C93.892,27.908 94.33,24.13 94.062,23.227C93.62,21.729 91.53,22.221 91.351,23.567C91.244,24.363 91.522,27.975 91.363,28.136L89.402,28.136C89.709,26.362 88.982,23.145 89.402,21.598L89.402,21.594Z" style="fill:white;fill-rule:nonzero;"/>
        <path d="M110.576,24.963C109.831,25.092 106.054,24.785 105.87,24.963C105.814,25.017 105.828,26.477 105.886,26.53C105.98,26.618 107.333,26.969 107.633,26.969C108.576,26.972 108.499,26.662 109.014,26.329C109.126,26.258 110.14,26.506 110.184,26.547C110.509,26.85 109.576,27.961 109.159,28.085C108.64,28.24 106.665,28.227 106.056,28.142C103.456,27.774 102.862,21.499 106.456,20.995C109.314,20.595 110.762,22.102 110.576,24.961L110.576,24.963ZM109.007,23.773C108.893,21.904 106.66,21.614 105.872,23.18C105.483,23.954 106.519,23.766 106.85,23.773C107.569,23.788 108.293,23.764 109.007,23.773Z" style="fill:white;fill-rule:nonzero;"/>
        <path d="M100.621,34.517C104.39,33.392 106.73,37.298 104.891,40.418C103.571,42.658 99.377,42.137 98.873,39.76C98.73,39.084 98.679,36.905 98.856,36.302C98.938,36.026 100.348,34.601 100.621,34.519L100.621,34.517ZM100.816,36.103C100.171,36.724 100.064,39.673 101.152,40.228C103.307,41.33 103.964,38.386 103.479,36.688C103.231,35.816 101.447,35.495 100.816,36.101L100.816,36.103Z" style="fill:white;fill-rule:nonzero;"/>
        <path d="M129.064,27.674C128.997,27.606 128.236,26.145 128.208,25.964C128.107,25.259 128.111,23.154 128.404,22.573C129.427,20.549 132.992,20.264 134.288,22.197C135.355,23.786 135.109,27.032 133.327,27.946C132.593,28.322 129.624,28.247 129.062,27.674L129.064,27.674ZM132.878,26.499C133.345,26.039 133.477,24.049 133.133,23.366C133.045,23.189 132.079,22.268 131.902,22.215C129.743,21.585 129.19,25.472 130.228,26.499C130.716,26.981 132.39,26.981 132.878,26.499Z" style="fill:white;fill-rule:nonzero;"/>
        <path d="M49.797,41.603L49.797,51.509C49.181,51.554 47.053,51.64 47.053,50.915L47.053,41.603L49.797,41.603Z" style="fill:white;fill-rule:nonzero;"/>
        <path d="M136.062,21C137.036,21.033 137.85,20.622 137.631,21.793C138.634,20.876 139.558,20.825 140.899,21.067C141.48,21.174 142.335,21.822 142.335,22.387L142.335,28.132L140.768,28.132C140.57,26.674 141.426,22.684 139.75,22.204C139.549,22.147 138.564,22.609 138.399,22.767C137.631,23.499 137.564,25.682 137.631,26.745C137.658,27.164 137.996,27.493 137.996,27.542C137.991,28.121 136.595,28.238 136.062,28.13L136.062,20.998L136.062,21Z" style="fill:white;fill-rule:nonzero;"/>
        <path d="M121.945,19.018C122.083,19.162 121.811,20.865 121.945,21C122.122,21.179 123.634,20.698 123.907,21.197C124.162,23.123 122.153,22.399 121.947,22.586C121.8,22.717 121.82,26.393 121.961,26.53C122.549,27.104 124.489,26.32 123.908,28.128C119.6,28.919 119.902,25.463 119.985,22.186L118.81,22.582C118.378,20.189 119.615,21.307 119.978,20.989C120.081,20.899 119.7,19.279 120.595,19.036C120.857,18.965 121.9,18.967 121.947,19.016L121.945,19.018Z" style="fill:white;fill-rule:nonzero;"/>
        <path d="M103.125,22.98C102.344,22.951 102.49,23.453 101.764,22.989C101.357,22.73 100.711,22.142 100.241,22.224C98.113,22.598 98.408,26.475 99.827,26.906C101.165,27.314 101.548,25.883 102.535,26.15C103.436,26.393 103.092,27.575 102.351,27.944C101.351,28.442 98.607,28.254 97.824,27.345C96.763,26.113 96.792,22.659 98.021,21.586C99.363,20.413 102.959,20.66 103.125,22.978L103.125,22.98Z" style="fill:white;fill-rule:nonzero;"/>
        <rect x="85.872" y="18.623" width="1.96" height="9.509" style="fill:white;fill-rule:nonzero;"/>
        <path d="M114.497,34.471C115.471,34.504 116.285,34.093 116.066,35.264C116.507,35.241 116.674,34.643 117.093,34.519C118.657,34.057 119.006,34.387 118.811,35.856C118.762,36.223 117.811,35.946 117.229,36.242C115.862,36.932 116.659,40.19 116.457,41.604L114.495,41.604L114.495,34.471L114.497,34.471Z" style="fill:white;fill-rule:nonzero;"/>
        <path d="M94.107,34.471C94.633,33.936 95.772,35.211 95.872,35.209C96.063,35.209 96.336,34.638 96.709,34.523C98.265,34.038 98.612,34.404 98.423,35.858C98.379,36.185 96.55,36.059 96.114,36.499C95.353,37.27 95.794,40.429 95.675,41.603L94.107,41.603C94.291,40.588 93.859,34.724 94.107,34.471Z" style="fill:white;fill-rule:nonzero;"/>
        <path d="M126.651,21L126.651,28.132L125.082,28.132L125.082,21.594C125.082,21.185 126.196,20.836 126.651,21Z" style="fill:white;fill-rule:nonzero;"/>
        <rect x="125.082" y="18.227" width="1.962" height="1.584" style="fill:white;fill-rule:nonzero;"/>
    </g>
</svg>
