<svg width="26" height="26" viewBox="0 0 26 26" fill="none" xmlns="http://www.w3.org/2000/svg">
<path d="M11.0231 0.0823035C23.7203 -1.27878 30.212 14.5798 20.4496 22.6339C14.2689 27.7286 4.82987 25.5684 1.31045 18.4507C-2.50744 10.7088 2.40483 1.00634 11.0231 0.0823035ZM10.8241 1.08127C6.45901 1.60573 2.28047 5.47671 1.28558 9.74728C-1.66177 22.3842 14.3186 29.9014 21.8176 19.8493C28.1476 11.3831 21.2953 -0.19241 10.8241 1.06878V1.08127Z" fill="#35A88C"/>
<path d="M17.9377 16.3529C18.8953 17.3519 17.8009 19.3498 16.4578 19.6245C11.3217 20.6859 5.53891 11.995 7.16804 7.52459C7.65305 6.17599 9.86668 5.07713 10.9859 5.96371C11.2844 6.20096 11.5331 8.91065 11.4461 9.4476C11.2595 10.5964 10.0159 10.5465 10.0657 11.4206C10.0905 11.7702 12.1176 14.9918 12.4658 15.3789C13.5602 16.5652 13.896 14.9294 15.2888 15.1167C15.4505 15.1417 17.8258 16.253 17.9253 16.3529H17.9377Z" fill="#35A88C"/>
</svg>
