<?xml version="1.0" encoding="UTF-8"?>
<svg id="Layer_2" data-name="Layer 2" xmlns="http://www.w3.org/2000/svg" viewBox="0 0 657.47 157.62">
  <defs>
    <style>
      .cls-1 {
        fill: #1b4535;
      }
    </style>
  </defs>
  <g id="Layer_1-2" data-name="Layer 1">
    <g>
      <path class="cls-1" d="M119.56,11.81c36.36-1.44,78.19,3.89,110.38,21.67,27.75,15.33,46.96,42.85,21.39,71.09-22.78,25.17-73.11,36.43-105.73,37.84-24.69,1.07-50.8-.9-74.81-7.14-24-6.23-57.43-20.23-67.87-44.49-9.79-22.74,6.63-42.42,24.92-54.04,25.55-16.23,61.76-23.75,91.71-24.94ZM135.17,24.29c-4.56.22-9.59.3-14.04,1.56-2.65.76-5.21,3.79-6.93,5.94-5.68,7.12-15.84,24.47-5.84,31.58,8.47,6.03,28.29,1.08,37.92-1.45,9.41-2.47,19.42-5.96,28.27-9.96,5.46-2.47,17.12-8.33,20.57-12.98,2.75-3.7.56-4.39-2.79-5.74-14.5-5.8-41.71-9.72-57.16-8.96ZM78.98,31.31c-27.8,3.18-88.34,31.66-55.31,66.03,2.22,2.31,9.46,8.47,12.36,9.09,5.8,1.25,6.15-4.73,7.73-8.51,7.39-17.69,23.83-43.49,36.09-58.33,1.06-1.29,4.9-4.92,5.3-6.03,1.07-2.96-4.55-2.44-6.17-2.26ZM224.87,47.71c-1.47.05-2.54.92-3.33,2.09-8.4,17.61-18.42,34.93-29.15,51.22-3.02,4.58-7.18,11.43-10.89,15.25-1.35,1.39-6.47,4.76-3.09,6.97,2.29,1.49,8.42-.61,11.08-1.32,17.49-4.66,45.07-15.33,54.93-31.29,8.03-13,1.52-27.71-9.1-36.8-2.02-1.73-7.99-6.21-10.46-6.13ZM136.34,89.44c-12.14.78-27.19,4.77-38.63,8.96-8.01,2.93-26.4,10.79-30.66,18.11-1.33,2.29-1.31,3.63.97,5.15,5.15,3.43,21.49,6.12,28.06,7.05,12.63,1.79,27.13,2.98,39.78,1.99,13.24-1.04,22.29-20.4,21.26-32.2-.34-3.92-1.43-5.91-5.08-7.4-4.63-1.89-10.74-1.98-15.7-1.66Z"/>
      <path class="cls-1" d="M331.89,29.26l6.04,24.97.59.39,6.25-25.35,5.87.16c2.45,8.28,4.73,16.74,6.61,25.19l.78-.58,5.85-24.78h6.05c.07,0,.71.53.42.79l-8.9,33.26c-.35.87-.79.99-1.65,1.08-.92.1-5.15.15-5.5-.39l-6.03-23.82c-.49-.69-.69.11-.81.55-2,7.76-4.06,15.49-6,23.27-.46.72-5.68.36-6.87.21l-9.34-34.94h6.63Z"/>
      <path class="cls-1" d="M334.82,95.59l10.53,23.8,10.34-23.8h6.83s.59.54.59.59v33.94s-.54.59-.59.59h-5.66v-23.8l-9.16,19.91c-.8.83-3.44.17-4.65.4l-9.21-20.31v23.8h-5.66s-.59-.54-.59-.59v-33.94s.54-.59.59-.59h6.63Z"/>
      <rect class="cls-1" x="291.71" width="3.9" height="157.62"/>
      <path class="cls-1" d="M480.93,43.7h14.83v-14.44h6.05c.11,0,.48.43.54.63v33.85c-.22.65-.71.6-1.3.65-.88.07-5.28.21-5.28-.6v-15.02h-14.83v15.02c0,.43-.95.57-1.35.6-.85.07-5.28.21-5.28-.6V29.26h6.05s.59.54.59.59v13.85Z"/>
      <path class="cls-1" d="M456.35,29.26v34.53s-.54.59-.59.59h-5.66c-.12,0,.08-1.96,0-2.34-1.04.69-1.95,1.64-3.12,2.15-9.06,3.9-16.85-4.76-15.97-13.63.99-9.96,11.26-15.55,19.09-8.42v-12.87h6.24ZM442.59,44.17c-8.19,1.49-6.13,19,3.9,15.21,3.42-1.29,3.94-4.84,3.63-8.09-.39-4.07-3-7.95-7.53-7.12Z"/>
      <path class="cls-1" d="M617.48,29.26v34.53c0,.25-.63.55-.97.59-.78.11-4,.13-4.64-.05-1.03-.3-.36-1.65-.83-2.29-1.12,1.38-2.66,2.21-4.38,2.64-5.2,1.29-10.59-1.15-12.93-6.01-4.18-8.69.73-20.65,11.47-19.66,2.62.24,4.22,1.4,6.04,3.13v-12.87h6.24ZM603.72,44.17c-6.25,1.14-6.8,12.76-.95,15.21,2.05.86,3.67.72,5.62-.39,3.04-1.73,3.15-4.91,2.86-8.08-.37-3.99-3.26-7.51-7.53-6.73Z"/>
      <path class="cls-1" d="M454.79,120.17h-17.17c.46,7.46,9.45,8.1,13.46,2.73.28,0,3.39,3.63,3.3,4.05-1.16,1.27-2.71,2.47-4.28,3.16-4.14,1.83-9.19,1.73-13.14-.51-10.13-5.73-7.04-23.43,5.13-24.28,8.8-.61,13.23,6.81,12.7,14.84ZM448.55,116.26c-.85-8.13-10.45-8.11-10.92,0h10.92Z"/>
      <path class="cls-1" d="M380.56,39.11c6-.83,11.99,1.55,14.23,7.43,4.01,10.55-4.12,20.86-15.32,18.05-12.68-3.18-11.92-23.68,1.09-25.48ZM381.71,44.17c-1.24.27-3.04,1.83-3.72,2.91-2.75,4.32-.88,13.03,5.13,12.89,8.97-.21,7.88-17.79-1.41-15.8Z"/>
      <path class="cls-1" d="M492.53,105.43c10.23-1.41,16.01,5.9,14.9,15.68-.93,8.13-10.03,11.94-17.24,9.5-11.49-3.89-10.36-23.43,2.35-25.18ZM493.7,110.5c-5.33.97-6.25,9.59-3.41,13.38,3.64,4.85,9.94,1.85,10.84-3.6.79-4.78-1.85-10.8-7.44-9.78Z"/>
      <path class="cls-1" d="M390.81,130.7h-5.46c-.12,0,.25-2.07-.19-2.34-3.75,4.41-13.27,4.05-15.71-1.46-2.46-5.58.82-10.16,6.43-11.33.43-.09,2.88-.47,3.04-.47h6.05c-.4-4.72-4.82-5.93-8.8-4.31-.9.37-3.21,2.47-3.69,2.19-.98-.58-1.91-2.84-3.12-3.53,5.3-5.49,17.16-6.11,20.63,1.61.16.35.83,2.16.83,2.29v17.36ZM384.95,119.39h-6.44c-.1,0-1.66.69-1.9.83-3.26,1.96-1.55,6.61,2.29,6.61,4.09,0,6.83-3.47,6.05-7.44Z"/>
      <path class="cls-1" d="M638.55,48.77c-.15-4.84-5.16-6.05-9.07-4.2-1.19.56-2.62,2.52-3.82,1.68-1.85-2.85-3.93-2.89-.12-5.22,6.96-4.26,18.18-2.3,18.88,7.14.13,1.81.25,15.18-.19,15.84-.32.48-5.1.56-5.29.37-.23-.23.33-1.97-.19-2.34-1.03,1.11-2.64,2.13-4.08,2.55-3.96,1.15-9.79.16-11.62-4.01-1.98-4.48-.09-9.23,4.59-10.83.82-.28,3.86-.97,4.49-.97h6.44ZM638.55,53.06h-6.44c-.1,0-1.66.69-1.9.83-3.04,1.81-1.72,6.46,2.29,6.61s6.97-3.66,6.04-7.44Z"/>
      <path class="cls-1" d="M535.16,130.7h-6.24v-16.58c0-.32-1.22-2.41-1.57-2.72-1.35-1.18-3.51-1.3-5.04-.38-5.17,3.09-2.4,13.61-3.13,18.72-.05.33-.34.97-.59.97h-5.66v-24.58h6.24c.12,0-.25,2.07.19,2.34,4.41-5.22,12.99-3.91,15.23,2.72.1.31.57,2.05.57,2.16v17.36Z"/>
      <path class="cls-1" d="M581.2,64.37v-16.19c0-.09-.5-1.48-.61-1.73-.93-1.99-3.46-3.01-5.53-2.07-5.79,2.63-2.88,13.94-3.61,19.02-.05.33-.34.97-.59.97h-5.66v-24.58h6.24c.12,0-.25,2.07.19,2.34,2.88-3.86,9.27-4.22,12.82-1.11,5.02,4.39,2.26,16.3,2.99,22.38.03.32-.4.97-.59.97h-5.66Z"/>
      <path class="cls-1" d="M542.57,39.8v15.41c0,.11.47,1.88.57,2.17,1.23,3.55,6.25,2.91,8.2.35.16-.21.99-1.64.99-1.74v-16.19h6.24v24.58h-5.85v-2.73c-.59-.02-.48.72-.96,1.19-2.68,2.62-8.32,2.78-11.41.84-2.89-1.82-3.28-4.61-4.02-7.69v-16.19h6.24Z"/>
      <path class="cls-1" d="M513.7,39.8l5.85,16.78c.97.1.63.03.8-.56,1.6-5.48,4.26-10.72,5.83-16.22h6.24l-11.38,29c-2.46,4.52-6.42,5.17-11.25,4.94v-5.07c4.03.45,6.52-.45,6.96-4.78l-9.12-22.9-.18-1.19h6.24Z"/>
      <path class="cls-1" d="M475.85,113.53c-.84.16-1.14-.71-1.75-1.17-2.37-1.78-6.21-3.58-8.92-1.51-1.01.77-1.52,2.82-.39,3.49,1.75,1.03,5.93,1.21,8.16,1.91,2.93.92,5.38,2.51,5.94,5.76.78,4.46-2.68,8.05-6.83,9s-8.7.27-12.33-1.94c-.85-.52-3.18-1.71-2.23-2.87.48-.58,2.16-2.75,2.61-2.88.96-.28,1.28.69,1.89,1.14,1.64,1.2,3.79,2.23,5.85,2.36,4.31.27,7.49-4.07,2.24-5.77-3.69-1.2-9.4-.81-11.35-5.04-.88-1.92-.71-4.99.54-6.75,4.22-5.92,14.99-4.9,19.23.56-.49,1.55-2.4,2.16-2.67,3.71Z"/>
      <path class="cls-1" d="M422.41,106.12h5.46c-.18,1.06.41,4.38-.37,4.9-.82.55-3.93-.04-5.09.17v13.46c0,1.21,4.93,1.02,5.85.97-.2,1.14.54,4.69-.63,5.03-.82.24-4.74.15-5.81.05-2.85-.26-5.37-1.86-5.66-4.88-.45-4.63.35-9.94.01-14.64-5.14.56-4.37-.64-4.29-5.07h4.29s0-6.63,0-6.63h5.66s.59.54.59.59v6.05Z"/>
      <path class="cls-1" d="M404.85,99.49v6.63h5.46v5.07h-5.46v13.46c0,1.21,4.93,1.02,5.85.97v5.07h-6.83c-.11,0-1.88-.47-2.17-.57-1.45-.5-2.77-2.53-3.02-4.01l-.08-14.94c-1.05-.17-3.92.5-4.25-.63-.17-.58-.16-3.65.13-4.07.5-.74,3.16-.22,4.12-.37v-6.63h6.24Z"/>
      <path class="cls-1" d="M425.92,29.26v34.53s-.54.59-.59.59h-5.66V29.26h6.24Z"/>
      <path class="cls-1" d="M415.78,39.4v5.46c-11.81-.74-7.58,11.54-8.58,18.54-.05.33-.34.97-.59.97h-5.66v-24.58h6.24c.02.71-.02,1.43,0,2.15.01.45-.25,1.07.39.97,1.19-3.01,5.24-3.82,8.2-3.51Z"/>
      <path class="cls-1" d="M656.89,39.8v23.99s-.54.59-.59.59h-5.66v-24.58h6.24Z"/>
      <path class="cls-1" d="M652.47,28.17c5.96-1.36,6.92,7.15,1.1,7.15-4.86,0-4.73-6.33-1.1-7.15Z"/>
    </g>
  </g>
</svg>