<?xml version="1.0" encoding="UTF-8"?>
<svg id="Layer_2" data-name="Layer 2" xmlns="http://www.w3.org/2000/svg" viewBox="0 0 659 180.22">
  <defs>
    <style>
      .cls-1 {
        fill: #1b4535;
      }
    </style>
  </defs>
  <g id="Layer_1-2" data-name="Layer 1">
    <g>
      <polygon class="cls-1" points="355.4 180.22 355.4 0 360.07 0 360.31 180.22 355.4 180.22"/>
      <path class="cls-1" d="M132.37,57.55l-42.82,29.67,3.12,4.01c8.43,10.16,18.62,20.01,26.51,30.58.28.37,1.45,1.94,1.14,2.2-3.86.73-7.89.44-11.83.46-4.66.02-9.48-.13-14.25-.47-1.63-.12-3.64.32-5.17-.18-.99-.33-3.37-2.88-4.22-3.81-4.92-5.33-9.65-11.26-14.49-16.74-1.06-1.2-.69-2.25-2.83-1.05-7.33,5.14-14.57,10.47-22,15.47-3.31,2.23-8.55,6.43-12.4,6.78-8.54-.56-17.91.71-26.34,0-3.57-.3-5.79-1.4-6.43-5.16.72-13.96-1.04-28.99-.04-42.82.41-5.68,2.44-7.87,6.75-11.1,6.84-5.12,14.55-9.54,21.38-14.75.81-.74,1.78.14,1.78.89v55.98l78.36-54.34,3.25-1.66c15.19-.46,30.5-.09,45.73-.19,4.09.81,3.62,4.46,4.27,7.79.02,18.08-1.62,37.77-.49,55.78.06.95.24,2.05.69,2.88l87.5-65.5c3.1-1.63,6.8-.8,10.2-.95.76-.03,1.44-.45,2.2-.47,3.73-.12,8.39-.04,12.04.47,2.22.31,3.41,2.7,3.78,4.69-.78,14.67,1.11,30.52.04,45.05-.4,5.45-3.18,7.28-7.19,10.21-6.9,5.02-14.23,9.54-21.18,14.51-.38.19-1.09-.53-1.09-.65v-49.51s-.65-.9-.89-.45l-58.47,44.13c-3.3,2.16-6.23,5.01-10.43,5.18-13.12-.9-27.68,1.14-40.62,0-1.97-.17-3.56-.79-4.62-2.52-.17-.28-.95-2.06-.95-2.17v-62.23Z"/>
      <polygon class="cls-1" points="404.03 33.01 411.83 64.69 420.09 33.02 426.97 32.99 435.69 64.68 443.28 33.01 450.86 33.01 439.67 74.91 431.7 74.92 424.09 45.72 423.21 45.05 415.6 74.92 407.86 74.97 396.44 33.01 404.03 33.01"/>
      <path class="cls-1" d="M585.13,33.01v18.73c5.93-5.84,11.06-12.58,16.73-18.73h8.7l-17.38,20.25,20.06,21.68h-10.04l-5.79-6.7c-4.35-4.07-7.88-8.96-12.28-12.92v19.63h-7.14v-41.93h7.14Z"/>
      <path class="cls-1" d="M555.69,74.94h-7.14v-3.57c-.66.1-.71.98-1.32,1.58-3.1,3.03-8.52,3.6-12.51,2.21-15.07-5.24-11.82-32.63,6.44-30.53,3.1.36,5.4,2.21,7.39,4.43v-16.5h6.47s.67.62.67.67v41.71ZM538.15,50.94c-.59.13-2.26,1.25-2.76,1.7-4.66,4.2-3.43,15.67,3.22,16.85,5.85,1.04,10.4-2.59,9.95-8.61-.45-6.06-3.42-11.52-10.41-9.94Z"/>
      <path class="cls-1" d="M529.82,135.16h-20.97c.26,6.7,8.56,9.71,13.81,6,1.03-.73,2.34-3.15,3.61-2.23l3.08,3.99c-4.35,5.58-12.24,6.93-18.71,4.5-15.16-5.69-11.57-31.52,6.93-30.13,8.8.66,12.97,9.92,12.25,17.86ZM522.68,130.26c-1.1-9.75-12.83-9.46-13.83,0h13.83Z"/>
      <path class="cls-1" d="M651.59,56.65c.5-6.55-7.19-7.67-11.91-5-.8.45-2.17,2.01-2.97,1.83-.24-.05-3.06-2.85-3.41-3.3-1.06-1.4-.13-.87.68-1.55,7.07-5.93,21.73-6.09,24.11,4.42,1.09,4.79,1.07,15.28.66,20.34-.22,2.81-4.53,1.09-6.71,1.54l-.22-3.12c-5.62,7.02-19.42,4.83-19.87-5.11-.15-3.24,1.64-6.45,4.33-8.2.67-.44,4.28-1.85,4.84-1.85h10.48ZM652.04,61.56h-8.7c-.12,0-1.88.78-2.17.95-2.43,1.46-2.72,4.86-.51,6.64,4.76,3.84,12.73-1.67,11.38-7.59Z"/>
      <path class="cls-1" d="M463.24,44.72c7.44-1.05,14.71,1.83,17.41,9.14,4.93,13.34-6.38,26.05-20.1,20.99-13.57-5.01-11.89-28.06,2.68-30.13ZM464.1,50.94c-1.78.4-3.83,2.74-4.55,4.37-1.18,2.7-1.05,8.12.47,10.69,3.05,5.16,10.67,4.95,13.23-.56.82-1.77,1.42-4.77,1.14-6.68-.8-5.55-4.42-9.16-10.29-7.83Z"/>
      <path class="cls-1" d="M446.73,117.43c11.36-1.57,19.51,6.06,18.42,17.52-1.03,10.86-11.89,16.3-21.73,12.34-12.97-5.22-11.12-27.87,3.31-29.86ZM449.42,123.2c-9.78,1.01-9.37,17.56-1.36,19,3.43.62,5.91-.23,7.91-3.04,2.12-2.97,2.35-7.8.92-11.14-1.19-2.75-4.42-5.13-7.47-4.82Z"/>
      <path class="cls-1" d="M427.67,105.72v27.43c0,1-.75,4.36-1.12,5.58-3.8,12.47-23.09,13.26-28.66,1.9-1.14-2.33-1.38-4.75-1.9-7.25l6.88-.87c.96.28.65,2.14.91,3.12.83,3.23,3.29,5.89,6.7,6.23,3.18.32,6.5-.53,8.21-3.42.22-.37,1.4-3.32,1.4-3.51v-29.22h7.58Z"/>
      <path class="cls-1" d="M544.98,110.18v8.03h7.14v5.8h-7.14v15.84c0,.17.81,1.39,1.17,1.51,1.49.45,4.29-.21,5.97.06v6.24h-8.7c-.29,0-3.2-1.42-3.58-1.77-.48-.44-1.99-3.38-1.99-3.81v-18.07h-4.91s0-5.8,0-5.8h4.91s0-8.03,0-8.03h7.14Z"/>
      <rect class="cls-1" x="511.53" y="32.57" width="7.14" height="42.38"/>
      <rect class="cls-1" x="471.83" y="105.28" width="7.14" height="42.38"/>
      <path class="cls-1" d="M506.17,45.06v6.69c-5.26-.67-9.11,1.72-10.23,6.94-.09.42-.47,2.51-.47,2.65v13.61h-7.14v-29.44h7.14l.22,4.46c2.23-3.76,6.2-5.33,10.48-4.91Z"/>
      <rect class="cls-1" x="618.58" y="45.5" width="7.14" height="29.44"/>
      <rect class="cls-1" x="487.44" y="118.21" width="7.14" height="29.44"/>
      <path class="cls-1" d="M489.98,104.01c5.77-1.22,7.8,8.04,1.68,8.84-5.96.78-7.18-7.68-1.68-8.84Z"/>
      <path class="cls-1" d="M621.59,31.3c5.3-.82,7.35,8.02,1.21,8.84s-7.2-7.92-1.21-8.84Z"/>
    </g>
  </g>
</svg>