<?xml version="1.0" encoding="UTF-8"?>
<svg id="Layer_2" data-name="Layer 2" xmlns="http://www.w3.org/2000/svg" viewBox="0 0 1817.54 576.79">
  <defs>
    <style>
      .cls-1, .cls-2 {
        fill: #fff;
      }

      .cls-2 {
        stroke: #fff;
        stroke-miterlimit: 10;
        stroke-width: 6.01px;
      }
    </style>
  </defs>
  <g id="Layer_1-2" data-name="Layer 1">
    <rect id="LOGO_BG_BLACK" data-name="LOGO BG BLACK" class="cls-1" width="574.31" height="576.79" rx="95.92" ry="95.92"/>
    <path id="LOGO_CORE_WHITE" data-name="LOGO CORE WHITE" d="M481.84,332l-63.49,108.89c-10.52,18.06-33.63,32.68-51.58,32.68s-24-14.62-13.5-32.68l6.35-10.89c3.5-6,4.25-11.47,2.61-15.39s-5.6-6.39-11.6-6.39c-12,0-27.38,9.75-34.39,21.78l-6.35,10.89c-10.53,18.06-33.63,32.68-51.59,32.68s-24-14.62-13.49-32.68l44.44-76.25c3.5-6,4.25-11.47,2.61-15.39s-5.6-6.39-11.6-6.39c-12,0-27.38,9.75-34.39,21.78l-44.45,76.25c-10.52,18.11-33.62,32.68-51.58,32.68s-24-14.62-13.49-32.68l57.14-98c3.49-6,4.25-11.48,2.61-15.4s-5.61-6.39-11.61-6.39c-10.27,0-23.05,7.17-30.9,16.8-.41.48-.79,1-1.14,1.45-.07.08-.11.15-.18.22-11.81,14.4-30.94,25.1-46.3,25.1-17.97-.03-23.97-14.67-13.49-32.67l38.09-65.35c10.53-18.06,33.61-32.68,51.59-32.68,9,0,15,3.65,17.42,9.56,1.78,4.31,1.68,9.8-.55,15.95-.17.41-.31.82-.48,1.24-3.37,9.63,1.07,16.82,11.34,16.82,12,0,27.37-9.76,34.39-21.79l69.83-119.82c10.53-18.06,33.6-32.68,51.59-32.68,9,0,15,3.66,17.42,9.56s1.33,14.09-3.93,23.12l-82.53,141.57c-7,12-3,21.79,9,21.79s27.34-9.76,34.34-21.79l6.35-10.89c10.52-18.06,33.6-32.68,51.58-32.68,9,0,15,3.65,17.43,9.56s1.33,14.09-3.93,23.12l-44.43,76.25c-7,12-3,21.78,9,21.78s27.38-9.75,34.39-21.78l6.35-10.9c10.53-18,33.6-32.67,51.58-32.67,9,0,15,3.65,17.43,9.56s1.35,14.08-3.91,23.15Z"/>
    <path id="L" class="cls-2" d="M707.17,438.07V113.88h35.69v324.19h-35.69Z"/>
    <path id="O" class="cls-2" d="M892.25,440.76c-32.88,0-59.59-10.44-80.14-31.32-20.55-20.88-30.82-47.06-30.82-78.54s10.27-57.7,30.82-78.72c20.55-21.02,47.26-31.53,80.14-31.52,31.7,0,57.97,10.29,78.82,30.86,20.85,20.57,31.27,47.03,31.27,79.38s-10.42,58.76-31.27,79.2-47.12,30.66-78.82,30.66ZM892.25,408.11c20.86,0,38.41-7.28,52.65-21.83s21.36-33.01,21.36-55.38c0-22.67-7.05-41.2-21.14-55.59-14.09-14.39-31.72-21.6-52.87-21.61-22,0-40,7.42-54,22.27-14,14.85-20.96,33.16-20.89,54.93,0,21.77,6.97,40.08,20.92,54.93,13.95,14.85,31.94,22.27,53.97,22.28h0Z"/>
    <path id="K" class="cls-2" d="M1118.85,339.84l-.95.22-44.9,49.82v48.19h-35.3V113.88h35.3v226.75l1.07.17,105.23-117.45h43.75l-80.19,89,80.64,125.72h-41.13l-63.52-98.23Z"/>
    <path id="A" class="cls-2" d="M1402.68,223.35h35.47v214.77h-34.15v-34h-.44c-18.19,24.41-43.12,36.62-74.79,36.62s-55.29-10-75.23-30-29.91-46.18-29.91-78.53,9.9-58.26,29.69-79.56c19.79-21.3,44.79-31.97,75-32,30.5,0,55.14,11.58,73.91,34.75h.44v-32.05ZM1331.85,408.11c19.94,0,36.94-7.13,51-21.39s21.11-32.42,21.15-54.49c0-22.06-6.82-40.66-20.46-55.81s-30.72-22.72-51.25-22.72-37.76,7.28-51.69,21.84-20.89,33.46-20.9,56.69c0,22.06,6.67,40.22,20,54.49,13.33,14.27,30.72,21.4,52.15,21.39h0Z"/>
    <path id="M" class="cls-2" d="M1739.2,220.66c50.23,0,75.35,30.58,75.34,91.73v125.68h-35.69v-116c0-23.81-4.04-41.16-12.12-52.05s-20.78-16.33-38.11-16.31c-17.03,0-31.28,7.06-42.73,21.17-11.45,14.11-17.18,32.93-17.18,56.46v106.73h-35.71v-116.45c0-45.28-17.03-67.92-51.1-67.92-17.92,0-32.75,7.06-44.5,21.17-11.75,14.11-17.62,32.93-17.61,56.46v106.74h-35.29v-214.77h35.31v37h.43c8.28-12.15,19.3-22.18,32.16-29.3,12.26-6.81,26.06-10.37,40.09-10.35,34.36,0,57.12,14.1,68.28,42.3h.45c17.62-28.19,43.61-42.29,77.98-42.29Z"/>
  </g>
</svg>